<svg width="14" height="14" viewBox="0 0 14 14" fill="none" xmlns="http://www.w3.org/2000/svg">
<path fill-rule="evenodd" clip-rule="evenodd" d="M9.91806 4.09619H11.5C11.7761 4.09619 12 3.87233 12 3.59619C12 3.32005 11.7761 3.09619 11.5 3.09619H9.9181C9.99506 3.2461 10.0385 3.41605 10.0385 3.59615C10.0385 3.77628 9.99505 3.94627 9.91806 4.09619ZM7.96663 4.09619C7.88964 3.94627 7.84619 3.77628 7.84619 3.59615C7.84619 3.41605 7.88963 3.2461 7.96659 3.09619H2C1.72386 3.09619 1.5 3.32005 1.5 3.59619C1.5 3.87233 1.72386 4.09619 2 4.09619H7.96663Z" fill="#989286"/>
<path fill-rule="evenodd" clip-rule="evenodd" d="M8.94235 3C8.6131 3 8.34619 3.26691 8.34619 3.59615C8.34619 3.9254 8.6131 4.19231 8.94235 4.19231C9.27159 4.19231 9.5385 3.9254 9.5385 3.59615C9.5385 3.26691 9.27159 3 8.94235 3ZM7.34619 3.59615C7.34619 2.71462 8.06081 2 8.94235 2C9.82388 2 10.5385 2.71462 10.5385 3.59615C10.5385 4.47769 9.82388 5.19231 8.94235 5.19231C8.06081 5.19231 7.34619 4.47769 7.34619 3.59615Z" fill="#989286"/>
<path fill-rule="evenodd" clip-rule="evenodd" d="M6.74996 6.65381C6.42072 6.65381 6.15381 6.92072 6.15381 7.24996C6.15381 7.57921 6.42072 7.84612 6.74996 7.84612C7.07921 7.84612 7.34612 7.57921 7.34612 7.24996C7.34612 6.92072 7.07921 6.65381 6.74996 6.65381ZM5.15381 7.24996C5.15381 6.36843 5.86843 5.65381 6.74996 5.65381C7.63149 5.65381 8.34612 6.36843 8.34612 7.24996C8.34612 8.13149 7.63149 8.84612 6.74996 8.84612C5.86843 8.84612 5.15381 8.13149 5.15381 7.24996Z" fill="#989286"/>
<path fill-rule="evenodd" clip-rule="evenodd" d="M1.5 7.25C1.5 6.97386 1.72386 6.75 2 6.75H5.65385C5.92999 6.75 6.15385 6.97386 6.15385 7.25C6.15385 7.52614 5.92999 7.75 5.65385 7.75H2C1.72386 7.75 1.5 7.52614 1.5 7.25ZM7.34615 7.25C7.34615 6.97386 7.57001 6.75 7.84615 6.75H11.5C11.7761 6.75 12 6.97386 12 7.25C12 7.52614 11.7761 7.75 11.5 7.75H7.84615C7.57001 7.75 7.34615 7.52614 7.34615 7.25Z" fill="#989286"/>
<path fill-rule="evenodd" clip-rule="evenodd" d="M10.4038 10.3077C10.0745 10.3077 9.80762 10.5746 9.80762 10.9039C9.80762 11.2331 10.0745 11.5 10.4038 11.5C10.733 11.5 10.9999 11.2331 10.9999 10.9039C10.9999 10.5746 10.733 10.3077 10.4038 10.3077ZM8.80762 10.9039C8.80762 10.0224 9.52224 9.30774 10.4038 9.30774C11.2853 9.30774 11.9999 10.0224 11.9999 10.9039C11.9999 11.7854 11.2853 12.5 10.4038 12.5C9.52224 12.5 8.80762 11.7854 8.80762 10.9039Z" fill="#989286"/>
<path fill-rule="evenodd" clip-rule="evenodd" d="M1.5 10.9038C1.5 10.6277 1.72386 10.4038 2 10.4038H9.30769C9.58384 10.4038 9.80769 10.6277 9.80769 10.9038C9.80769 11.18 9.58384 11.4038 9.30769 11.4038H2C1.72386 11.4038 1.5 11.18 1.5 10.9038Z" fill="#989286"/>
</svg>
