<svg width="24" height="24" viewBox="0 0 24 24" fill="none" xmlns="http://www.w3.org/2000/svg">
<path fill-rule="evenodd" clip-rule="evenodd" d="M4.89338 20.4443C5.05045 19.9994 5.19674 19.4836 5.31486 18.8917C5.31496 18.8911 5.31507 18.8906 5.31518 18.8901C5.31518 18.89 5.31518 18.8901 5.31518 18.8901C5.35405 18.6952 5.38717 18.5082 5.41514 18.3291C5.45247 18.09 5.48061 17.8648 5.50099 17.653C5.51387 17.519 5.52365 17.3905 5.53068 17.2671C5.54286 17.0532 5.48288 16.8414 5.36037 16.6658C5.30734 16.5897 5.25557 16.5128 5.2051 16.4349C4.38247 15.1652 3.90478 13.6511 3.90478 12.0227C3.90478 7.54167 7.52914 3.90908 12 3.90908C12.1245 3.90908 12.2483 3.9119 12.3715 3.91748C12.611 3.26882 12.9664 2.65326 13.4376 2.1028C13.1157 2.05635 12.7888 2.02527 12.4578 2.01032C12.306 2.00346 12.1534 2 12 2C11.6776 2 11.3588 2.01529 11.0442 2.04519C5.96971 2.52748 2.00002 6.81045 2.00002 12.0227C2.00002 13.9741 2.55732 15.7973 3.52108 17.3386C3.52911 17.3515 3.53716 17.3643 3.54524 17.3771C3.56498 17.4083 3.58488 17.4394 3.60495 17.4705C3.60184 17.5028 3.59849 17.5356 3.59491 17.569C3.59315 17.5852 3.59134 17.6017 3.58947 17.6182C3.55923 17.8855 3.51348 18.1846 3.44709 18.5173C3.44698 18.5178 3.44687 18.5184 3.44677 18.5189C3.44676 18.5189 3.44677 18.5189 3.44677 18.5189C3.3384 19.0615 3.20449 19.5175 3.06653 19.8942C2.99837 20.0804 2.92921 20.2472 2.86165 20.3957C2.79014 20.5528 2.72044 20.6893 2.65559 20.8063C2.53012 21.0326 2.42183 21.1877 2.35212 21.2791C2.31724 21.3248 2.29193 21.3547 2.27886 21.3696L2.26988 21.3797C1.9731 21.6852 1.91429 22.1518 2.12733 22.5222C2.34253 22.8963 2.7815 23.079 3.1978 22.9677L8.71716 21.4925C8.75871 21.507 8.8004 21.5212 8.84219 21.5351C8.85245 21.5385 8.86271 21.5419 8.87298 21.5453C9.85778 21.87 10.9093 22.0454 12 22.0454C17.2094 22.0454 21.4885 18.053 21.9574 12.9544C21.9856 12.6476 22 12.3368 22 12.0227C22 11.8596 21.9961 11.6974 21.9884 11.5362C21.9728 11.2079 21.9414 10.8837 21.8949 10.5644C21.346 11.0338 20.7323 11.3881 20.0858 11.6273C20.0921 11.7583 20.0952 11.8901 20.0952 12.0227C20.0952 16.5037 16.4709 20.1363 12 20.1363C11.0685 20.1363 10.1754 19.9789 9.34476 19.6901C9.26346 19.6618 9.18276 19.6322 9.10268 19.6015C8.91536 19.5295 8.71015 19.5186 8.51631 19.5704L4.85584 20.5488C4.86841 20.5144 4.88093 20.4796 4.89338 20.4443Z" fill="#ECE8E1"/>
<path fill-rule="evenodd" clip-rule="evenodd" d="M19.4142 4.58579C18.6332 3.80474 17.3668 3.80474 16.5858 4.58579C15.8047 5.36683 15.8047 6.63317 16.5858 7.41421C17.3668 8.19526 18.6332 8.19526 19.4142 7.41421C20.1953 6.63317 20.1953 5.36683 19.4142 4.58579ZM15.1716 3.17157C16.7337 1.60948 19.2663 1.60948 20.8284 3.17157C22.3905 4.73367 22.3905 7.26633 20.8284 8.82843C19.2663 10.3905 16.7337 10.3905 15.1716 8.82843C13.6095 7.26633 13.6095 4.73367 15.1716 3.17157Z" fill="#ECE8E1"/>
</svg>
