<svg width="120" height="86" viewBox="0 0 120 86" fill="none" xmlns="http://www.w3.org/2000/svg">
<path d="M72.3684 20.4624H47.5664V65.5378H72.3684V20.4624Z" fill="#FF5F00"/>
<path d="M49.141 43.0001C49.137 38.659 50.1097 34.3739 51.9854 30.4692C53.861 26.5645 56.5905 23.1426 59.9671 20.4624C55.7856 17.1384 50.7638 15.0712 45.4755 14.4972C40.1873 13.9232 34.8461 14.8654 30.0623 17.2163C25.2786 19.5672 21.2453 23.2318 18.4236 27.7913C15.6018 32.3508 14.1055 37.6212 14.1055 43.0001C14.1055 48.379 15.6018 53.6494 18.4236 58.2089C21.2453 62.7684 25.2786 66.4331 30.0623 68.7839C34.8461 71.1348 40.1873 72.077 45.4755 71.503C50.7638 70.929 55.7856 68.8618 59.9671 65.5378C56.5905 62.8576 53.8611 59.4357 51.9854 55.531C50.1098 51.6263 49.1371 47.3412 49.141 43.0001Z" fill="#EB001B"/>
<path d="M105.827 43.0001C105.827 48.379 104.331 53.6493 101.509 58.2088C98.6879 62.7683 94.6547 66.433 89.8711 68.7839C85.0874 71.1347 79.7463 72.077 74.4581 71.503C69.17 70.929 64.1482 68.8618 59.9668 65.5378C63.3405 62.8549 66.0678 59.4324 67.9431 55.5283C69.8185 51.6243 70.7929 47.3405 70.7929 43.0001C70.7929 38.6597 69.8185 34.376 67.9431 30.4719C66.0678 26.5678 63.3405 23.1453 59.9668 20.4624C64.1482 17.1384 69.17 15.0712 74.4581 14.4972C79.7463 13.9232 85.0874 14.8655 89.8711 17.2164C94.6547 19.5673 98.6879 23.2319 101.509 27.7914C104.331 32.3509 105.827 37.6213 105.827 43.0001Z" fill="#F79E1B"/>
<path d="M103.123 60.7635V59.8407H103.491V59.6527H102.554V59.8407H102.922V60.7635H103.123ZM104.942 60.7635V59.6509H104.655L104.324 60.4162L103.994 59.6509H103.707V60.7635H103.909V59.9242L104.219 60.6479H104.43L104.739 59.9224V60.7635H104.942Z" fill="#F79E1B"/>
</svg>
