<svg width="25" height="24" viewBox="0 0 25 24" fill="none" xmlns="http://www.w3.org/2000/svg">
<path fill-rule="evenodd" clip-rule="evenodd" d="M12.5 3C10.9054 3 9.75 4.17465 9.75 5.45455V6.18182H15.25V5.45455C15.25 4.17741 14.0976 3 12.5 3ZM17.25 6.18182V5.45455C17.25 2.92304 15.0462 1 12.5 1C9.96022 1 7.75 2.91717 7.75 5.45455V6.18182H7C5.34315 6.18182 4 7.52496 4 9.18182V19C4 20.6569 5.34315 22 7 22H18C19.6569 22 21 20.6569 21 19V9.18182C21 7.52496 19.6569 6.18182 18 6.18182H17.25ZM15.25 8.18182V8.90909C15.25 9.46138 15.6977 9.90909 16.25 9.90909C16.8023 9.90909 17.25 9.46138 17.25 8.90909V8.18182H18C18.5523 8.18182 19 8.62953 19 9.18182V19C19 19.5523 18.5523 20 18 20H7C6.44772 20 6 19.5523 6 19V9.18182C6 8.62953 6.44772 8.18182 7 8.18182H7.75V8.90909C7.75 9.46138 8.19772 9.90909 8.75 9.90909C9.30228 9.90909 9.75 9.46138 9.75 8.90909V8.18182H15.25Z" fill="#C9A869"/>
</svg>
