<svg width="24" height="24" viewBox="0 0 24 24" fill="none" xmlns="http://www.w3.org/2000/svg">
<path fill-rule="evenodd" clip-rule="evenodd" d="M7.5 4C7.10218 4 6.72065 4.15804 6.43934 4.43934C6.15804 4.72064 6 5.10218 6 5.5C6 5.89782 6.15804 6.27936 6.43934 6.56066C6.72065 6.84196 7.10218 7 7.5 7H10.654C10.5319 6.68061 10.3774 6.32942 10.1863 5.98192C9.55732 4.83834 8.6939 4 7.5 4ZM11 9V13H4V11.2C4 10.6234 4.00078 10.2512 4.02393 9.96784C4.04612 9.69617 4.0838 9.59545 4.109 9.54601C4.20487 9.35785 4.35785 9.20487 4.54601 9.10899C4.59546 9.0838 4.69617 9.04612 4.96784 9.02393C5.25118 9.00078 5.62345 9 6.2 9H11ZM4.37921 7.08451C4.13221 6.598 4 6.05582 4 5.5C4 4.57174 4.36875 3.6815 5.02513 3.02513C5.68151 2.36875 6.57174 2 7.5 2C9.8061 2 11.1927 3.66166 11.9387 5.01808C11.9595 5.0559 11.9799 5.09368 12 5.13141C12.0201 5.09368 12.0405 5.0559 12.0613 5.01808C12.8073 3.66166 14.1939 2 16.5 2C17.4283 2 18.3185 2.36875 18.9749 3.02513C19.6313 3.6815 20 4.57174 20 5.5C20 6.05582 19.8678 6.598 19.6208 7.08451C19.8717 7.13 20.1199 7.20363 20.362 7.32698C20.9265 7.6146 21.3854 8.07354 21.673 8.63803C21.8658 9.01641 21.9371 9.40963 21.9694 9.80497C22 10.1795 22 10.6343 22 11.1614V17.8386C22 18.3657 22 18.8205 21.9694 19.195C21.9371 19.5904 21.8658 19.9836 21.673 20.362C21.3854 20.9265 20.9265 21.3854 20.362 21.673C19.9836 21.8658 19.5904 21.9371 19.195 21.9694C18.8205 22 18.3657 22 17.8386 22H6.16144C5.6343 22 5.17954 22 4.80497 21.9694C4.40963 21.9371 4.01641 21.8658 3.63803 21.673C3.07355 21.3854 2.6146 20.9265 2.32698 20.362C2.13419 19.9836 2.06287 19.5904 2.03057 19.195C1.99997 18.8205 1.99998 18.3657 2 17.8385V11.1615C1.99998 10.6343 1.99997 10.1795 2.03057 9.80497C2.06287 9.40963 2.13419 9.01641 2.32698 8.63803C2.6146 8.07354 3.07354 7.6146 3.63803 7.32698C3.88013 7.20363 4.12829 7.13 4.37921 7.08451ZM4 15V17.8C4 18.3766 4.00078 18.7488 4.02393 19.0322C4.04612 19.3038 4.0838 19.4045 4.109 19.454C4.20487 19.6422 4.35785 19.7951 4.54601 19.891C4.59546 19.9162 4.69617 19.9539 4.96784 19.9761C5.25117 19.9992 5.62345 20 6.2 20H11V15H4ZM13 15V20H17.8C18.3766 20 18.7488 19.9992 19.0322 19.9761C19.3038 19.9539 19.4045 19.9162 19.454 19.891C19.6422 19.7951 19.7951 19.6422 19.891 19.454C19.9162 19.4045 19.9539 19.3038 19.9761 19.0322C19.9992 18.7488 20 18.3766 20 17.8V15H13ZM20 13V11.2C20 10.6234 19.9992 10.2512 19.9761 9.96784C19.9539 9.69617 19.9162 9.59545 19.891 9.54601C19.7951 9.35785 19.6422 9.20487 19.454 9.10899C19.4045 9.0838 19.3038 9.04612 19.0322 9.02393C18.7488 9.00078 18.3766 9 17.8 9H13V13H20ZM16.5 7C16.8978 7 17.2794 6.84196 17.5607 6.56066C17.842 6.27936 18 5.89782 18 5.5C18 5.10218 17.842 4.72064 17.5607 4.43934C17.2794 4.15804 16.8978 4 16.5 4C15.3061 4 14.4427 4.83834 13.8137 5.98192C13.6226 6.32942 13.4681 6.68061 13.346 7H16.5Z" fill="#ECE8E1"/>
</svg>
