<svg width="24" height="24" viewBox="0 0 24 24" fill="none" xmlns="http://www.w3.org/2000/svg">
<path fill-rule="evenodd" clip-rule="evenodd" d="M5.56811 3C5.57873 3 5.58936 3.00001 5.60001 3.00001H8.40001C8.41065 3.00001 8.42128 3 8.4319 3C8.68429 2.99997 8.93008 2.99994 9.13824 3.01695C9.36683 3.03563 9.63656 3.07969 9.90799 3.21799C10.2843 3.40974 10.5903 3.7157 10.782 4.09202C10.9203 4.36345 10.9644 4.63318 10.9831 4.86178C11.0001 5.06993 11 5.31572 11 5.56811C11 5.57873 11 5.58936 11 5.60001V8.40001C11 8.41065 11 8.42128 11 8.4319C11 8.68429 11.0001 8.93008 10.9831 9.13824C10.9644 9.36683 10.9203 9.63656 10.782 9.90799C10.5903 10.2843 10.2843 10.5903 9.90799 10.782C9.63656 10.9203 9.36683 10.9644 9.13824 10.9831C8.93008 11.0001 8.68429 11 8.4319 11C8.42128 11 8.41065 11 8.40001 11H5.60001C5.58936 11 5.57873 11 5.56811 11C5.31572 11 5.06993 11.0001 4.86178 10.9831C4.63318 10.9644 4.36345 10.9203 4.09202 10.782C3.7157 10.5903 3.40974 10.2843 3.21799 9.90799C3.07969 9.63656 3.03563 9.36683 3.01695 9.13824C2.99994 8.93008 2.99997 8.68429 3 8.4319C3 8.42128 3.00001 8.41065 3.00001 8.40001V5.60001C3.00001 5.58936 3 5.57873 3 5.56811C2.99997 5.31572 2.99994 5.06993 3.01695 4.86178C3.03563 4.63318 3.07969 4.36345 3.21799 4.09202C3.40974 3.7157 3.7157 3.40974 4.09202 3.21799C4.36345 3.07969 4.63318 3.03563 4.86178 3.01695C5.06993 2.99994 5.31572 2.99997 5.56811 3ZM5.01145 5.01145C5.01107 5.0156 5.01069 5.02 5.01031 5.02464C5.00078 5.14122 5.00001 5.30348 5.00001 5.60001V8.40001C5.00001 8.69653 5.00078 8.85879 5.01031 8.97537C5.01069 8.98001 5.01107 8.98441 5.01145 8.98856C5.0156 8.98894 5.02 8.98932 5.02464 8.9897C5.14122 8.99923 5.30348 9.00001 5.60001 9.00001H8.40001C8.69653 9.00001 8.85879 8.99923 8.97537 8.9897C8.98001 8.98932 8.98441 8.98894 8.98856 8.98856C8.98894 8.98441 8.98932 8.98001 8.9897 8.97537C8.99923 8.85879 9.00001 8.69653 9.00001 8.40001V5.60001C9.00001 5.30348 8.99923 5.14122 8.9897 5.02464C8.98932 5.02 8.98894 5.0156 8.98856 5.01145C8.98441 5.01107 8.98001 5.01069 8.97537 5.01031C8.85879 5.00078 8.69653 5.00001 8.40001 5.00001H5.60001C5.30348 5.00001 5.14122 5.00078 5.02464 5.01031C5.02 5.01069 5.0156 5.01107 5.01145 5.01145ZM15.5681 3H18.4319C18.6843 2.99997 18.9301 2.99994 19.1382 3.01695C19.3668 3.03563 19.6366 3.07969 19.908 3.21799C20.2843 3.40974 20.5903 3.7157 20.782 4.09202C20.9203 4.36345 20.9644 4.63318 20.9831 4.86178C21.0001 5.06993 21 5.31571 21 5.56809V8.43192C21 8.6843 21.0001 8.93008 20.9831 9.13824C20.9644 9.36683 20.9203 9.63656 20.782 9.90799C20.5903 10.2843 20.2843 10.5903 19.908 10.782C19.6366 10.9203 19.3668 10.9644 19.1382 10.9831C18.9301 11.0001 18.6843 11 18.4319 11H15.5681C15.3157 11 15.0699 11.0001 14.8618 10.9831C14.6332 10.9644 14.3634 10.9203 14.092 10.782C13.7157 10.5903 13.4097 10.2843 13.218 9.90799C13.0797 9.63656 13.0356 9.36683 13.0169 9.13824C12.9999 8.93007 13 8.68428 13 8.43189V5.56812C13 5.31574 12.9999 5.06994 13.0169 4.86178C13.0356 4.63318 13.0797 4.36345 13.218 4.09202C13.4097 3.7157 13.7157 3.40974 14.092 3.21799C14.3634 3.07969 14.6332 3.03563 14.8618 3.01695C15.0699 2.99994 15.3157 2.99997 15.5681 3ZM15.0115 5.01145C15.0111 5.0156 15.0107 5.02 15.0103 5.02464C15.0008 5.14122 15 5.30348 15 5.60001V8.40001C15 8.69653 15.0008 8.85879 15.0103 8.97537C15.0107 8.98001 15.0111 8.98441 15.0115 8.98856C15.0156 8.98894 15.02 8.98932 15.0246 8.9897C15.1412 8.99923 15.3035 9.00001 15.6 9.00001H18.4C18.6965 9.00001 18.8588 8.99923 18.9754 8.9897C18.98 8.98932 18.9844 8.98894 18.9886 8.98856C18.9889 8.98441 18.9893 8.98001 18.9897 8.97537C18.9992 8.85879 19 8.69653 19 8.40001V5.60001C19 5.30348 18.9992 5.14122 18.9897 5.02464C18.9893 5.02 18.9889 5.0156 18.9886 5.01145C18.9844 5.01107 18.98 5.01069 18.9754 5.01031C18.8588 5.00078 18.6965 5.00001 18.4 5.00001H15.6C15.3035 5.00001 15.1412 5.00078 15.0246 5.01031C15.02 5.01069 15.0156 5.01107 15.0115 5.01145ZM5.56812 13H8.43189C8.68428 13 8.93007 12.9999 9.13824 13.0169C9.36683 13.0356 9.63656 13.0797 9.90799 13.218C10.2843 13.4097 10.5903 13.7157 10.782 14.092C10.9203 14.3634 10.9644 14.6332 10.9831 14.8618C11.0001 15.0699 11 15.3157 11 15.5681V18.4319C11 18.6843 11.0001 18.9301 10.9831 19.1382C10.9644 19.3668 10.9203 19.6366 10.782 19.908C10.5903 20.2843 10.2843 20.5903 9.90799 20.782C9.63656 20.9203 9.36683 20.9644 9.13824 20.9831C8.93008 21.0001 8.6843 21 8.43192 21H5.56809C5.31571 21 5.06993 21.0001 4.86178 20.9831C4.63318 20.9644 4.36345 20.9203 4.09202 20.782C3.7157 20.5903 3.40974 20.2843 3.21799 19.908C3.07969 19.6366 3.03563 19.3668 3.01695 19.1382C2.99994 18.9301 2.99997 18.6843 3 18.4319V15.5681C2.99997 15.3157 2.99994 15.0699 3.01695 14.8618C3.03563 14.6332 3.07969 14.3634 3.21799 14.092C3.40974 13.7157 3.7157 13.4097 4.09202 13.218C4.36345 13.0797 4.63318 13.0356 4.86178 13.0169C5.06994 12.9999 5.31574 13 5.56812 13ZM5.01145 15.0115C5.01107 15.0156 5.01069 15.02 5.01031 15.0246C5.00078 15.1412 5.00001 15.3035 5.00001 15.6V18.4C5.00001 18.6965 5.00078 18.8588 5.01031 18.9754C5.01069 18.98 5.01107 18.9844 5.01145 18.9886C5.0156 18.9889 5.02 18.9893 5.02464 18.9897C5.14122 18.9992 5.30348 19 5.60001 19H8.40001C8.69653 19 8.85879 18.9992 8.97537 18.9897C8.98001 18.9893 8.98441 18.9889 8.98856 18.9886C8.98894 18.9844 8.98932 18.98 8.9897 18.9754C8.99923 18.8588 9.00001 18.6965 9.00001 18.4V15.6C9.00001 15.3035 8.99923 15.1412 8.9897 15.0246C8.98932 15.02 8.98894 15.0156 8.98856 15.0115C8.98441 15.0111 8.98001 15.0107 8.97537 15.0103C8.85879 15.0008 8.69653 15 8.40001 15H5.60001C5.30348 15 5.14122 15.0008 5.02464 15.0103C5.02 15.0107 5.0156 15.0111 5.01145 15.0115ZM15.5681 13H18.4319C18.6843 13 18.9301 12.9999 19.1382 13.0169C19.3668 13.0356 19.6366 13.0797 19.908 13.218C20.2843 13.4097 20.5903 13.7157 20.782 14.092C20.9203 14.3634 20.9644 14.6332 20.9831 14.8618C21.0001 15.0699 21 15.3157 21 15.5681V18.4319C21 18.6843 21.0001 18.9301 20.9831 19.1382C20.9644 19.3668 20.9203 19.6366 20.782 19.908C20.5903 20.2843 20.2843 20.5903 19.908 20.782C19.6366 20.9203 19.3668 20.9644 19.1382 20.9831C18.9301 21.0001 18.6843 21 18.4319 21H15.5681C15.3157 21 15.0699 21.0001 14.8618 20.9831C14.6332 20.9644 14.3634 20.9203 14.092 20.782C13.7157 20.5903 13.4097 20.2843 13.218 19.908C13.0797 19.6366 13.0356 19.3668 13.0169 19.1382C12.9999 18.9301 13 18.6843 13 18.4319V15.5681C13 15.3157 12.9999 15.0699 13.0169 14.8618C13.0356 14.6332 13.0797 14.3634 13.218 14.092C13.4097 13.7157 13.7157 13.4097 14.092 13.218C14.3634 13.0797 14.6332 13.0356 14.8618 13.0169C15.0699 12.9999 15.3157 13 15.5681 13ZM15.0115 15.0115C15.0111 15.0156 15.0107 15.02 15.0103 15.0246C15.0008 15.1412 15 15.3035 15 15.6V18.4C15 18.6965 15.0008 18.8588 15.0103 18.9754C15.0107 18.98 15.0111 18.9844 15.0115 18.9886C15.0156 18.9889 15.02 18.9893 15.0246 18.9897C15.1412 18.9992 15.3035 19 15.6 19H18.4C18.6965 19 18.8588 18.9992 18.9754 18.9897C18.98 18.9893 18.9844 18.9889 18.9886 18.9886C18.9889 18.9844 18.9893 18.98 18.9897 18.9754C18.9992 18.8588 19 18.6965 19 18.4V15.6C19 15.3035 18.9992 15.1412 18.9897 15.0246C18.9893 15.02 18.9889 15.0156 18.9886 15.0115C18.9844 15.0111 18.98 15.0107 18.9754 15.0103C18.8588 15.0008 18.6965 15 18.4 15H15.6C15.3035 15 15.1412 15.0008 15.0246 15.0103C15.02 15.0107 15.0156 15.0111 15.0115 15.0115Z" fill="#ECE8E1"/>
</svg>
