<svg width="25" height="25" viewBox="0 0 25 25" fill="none" xmlns="http://www.w3.org/2000/svg">
<path d="M11.3263 20.4948L11.3256 20.4942C8.63349 18.053 6.43917 16.0597 4.91203 14.1914C3.39039 12.3298 2.5835 10.6533 2.5835 8.85417C2.5835 5.91215 4.87988 3.625 7.81266 3.625C9.47401 3.625 11.0768 4.40098 12.1207 5.61731L12.5002 6.05938L12.8796 5.61731C13.9235 4.40098 15.5263 3.625 17.1877 3.625C20.1205 3.625 22.4168 5.91215 22.4168 8.85417C22.4168 10.6533 21.6099 12.3298 20.0883 14.1914C18.5612 16.0597 16.3668 18.053 13.6747 20.4942L13.674 20.4948L12.5002 21.5634L11.3263 20.4948Z" fill="#FF3D00" stroke="#FF3D00"/>
</svg>
