<svg width="24" height="24" viewBox="0 0 24 24" fill="none" xmlns="http://www.w3.org/2000/svg">
<path d="M20.1668 12.1644C20.1668 12.7167 19.7191 13.1644 19.1668 13.1644H14.1668C13.6145 13.1644 13.1668 13.6121 13.1668 14.1644V19.1644C13.1668 19.7167 12.7191 20.1644 12.1668 20.1644H11.8335C11.2812 20.1644 10.8335 19.7167 10.8335 19.1644V14.1644C10.8335 13.6121 10.3858 13.1644 9.8335 13.1644H4.8335C4.28121 13.1644 3.8335 12.7167 3.8335 12.1644V11.8311C3.8335 11.2788 4.28121 10.8311 4.8335 10.8311H9.8335C10.3858 10.8311 10.8335 10.3833 10.8335 9.83105V4.83105C10.8335 4.27877 11.2812 3.83105 11.8335 3.83105H12.1668C12.7191 3.83105 13.1668 4.27877 13.1668 4.83105V9.83105C13.1668 10.3833 13.6145 10.8311 14.1668 10.8311H19.1668C19.7191 10.8311 20.1668 11.2788 20.1668 11.8311V12.1644Z" fill="#8C8C8C"/>
</svg>
