<svg width="16" height="16" viewBox="0 0 16 16" fill="none" xmlns="http://www.w3.org/2000/svg">
<path fill-rule="evenodd" clip-rule="evenodd" d="M8.00016 14.6667C11.6822 14.6667 14.6668 11.682 14.6668 8.00004C14.6668 4.31804 11.6822 1.33337 8.00016 1.33337C4.31816 1.33337 1.3335 4.31804 1.3335 8.00004C1.3335 11.682 4.31816 14.6667 8.00016 14.6667ZM11.5808 5.89004C11.612 5.85791 11.6364 5.81983 11.6526 5.77806C11.6687 5.7363 11.6763 5.69171 11.6748 5.64696C11.6733 5.6022 11.6629 5.5582 11.644 5.51759C11.6252 5.47697 11.5983 5.44056 11.5651 5.41054C11.5319 5.38052 11.493 5.3575 11.4507 5.34286C11.4083 5.32822 11.3635 5.32225 11.3188 5.32531C11.2742 5.32838 11.2306 5.34041 11.1907 5.3607C11.1507 5.38098 11.1153 5.4091 11.0865 5.44337L7.0935 9.85571L4.89683 7.75871C4.83291 7.69762 4.74735 7.66442 4.65895 7.66642C4.57056 7.66842 4.48658 7.70546 4.4255 7.76937C4.36441 7.83329 4.33121 7.91886 4.33321 8.00725C4.33521 8.09564 4.37225 8.17962 4.43616 8.24071L6.88083 10.574L7.1285 10.8107L7.35816 10.5567L11.5808 5.89004Z" fill="url(#paint0_linear_559_12294)"/>
<defs>
<linearGradient id="paint0_linear_559_12294" x1="1.3335" y1="14.6667" x2="14.6668" y2="1.33337" gradientUnits="userSpaceOnUse">
<stop stop-color="#C27E21"/>
<stop offset="0.5" stop-color="#F1B74B"/>
<stop offset="1" stop-color="#763D12"/>
</linearGradient>
</defs>
</svg>
