<svg width="25" height="25" viewBox="0 0 25 25" fill="none" xmlns="http://www.w3.org/2000/svg">
<circle cx="12.5" cy="12.5" r="12.5" fill="#FF3D00"/>
<path d="M9.43764 13.17C8.66764 13.17 8.03764 12.91 7.54764 12.39C7.06764 11.86 6.82764 11.155 6.82764 10.275C6.82764 9.395 7.06764 8.695 7.54764 8.175C8.03764 7.645 8.66764 7.38 9.43764 7.38C10.2076 7.38 10.8326 7.645 11.3126 8.175C11.7926 8.695 12.0326 9.395 12.0326 10.275C12.0326 11.155 11.7926 11.86 11.3126 12.39C10.8326 12.91 10.2076 13.17 9.43764 13.17ZM15.6926 7.5H17.4776L10.3076 18H8.52264L15.6926 7.5ZM9.43764 11.94C9.77764 11.94 10.0426 11.8 10.2326 11.52C10.4326 11.24 10.5326 10.825 10.5326 10.275C10.5326 9.725 10.4326 9.31 10.2326 9.03C10.0426 8.75 9.77764 8.61 9.43764 8.61C9.10764 8.61 8.84264 8.755 8.64264 9.04501C8.44264 9.32501 8.34264 9.735 8.34264 10.275C8.34264 10.815 8.44264 11.23 8.64264 11.52C8.84264 11.8 9.10764 11.94 9.43764 11.94ZM16.5626 18.12C16.0626 18.12 15.6126 18.005 15.2126 17.775C14.8226 17.535 14.5176 17.195 14.2976 16.755C14.0776 16.315 13.9676 15.805 13.9676 15.225C13.9676 14.645 14.0776 14.135 14.2976 13.695C14.5176 13.255 14.8226 12.92 15.2126 12.69C15.6126 12.45 16.0626 12.33 16.5626 12.33C17.3326 12.33 17.9576 12.595 18.4376 13.125C18.9276 13.645 19.1726 14.345 19.1726 15.225C19.1726 16.105 18.9276 16.81 18.4376 17.34C17.9576 17.86 17.3326 18.12 16.5626 18.12ZM16.5626 16.89C16.9026 16.89 17.1676 16.75 17.3576 16.47C17.5576 16.18 17.6576 15.765 17.6576 15.225C17.6576 14.685 17.5576 14.275 17.3576 13.995C17.1676 13.705 16.9026 13.56 16.5626 13.56C16.2326 13.56 15.9676 13.7 15.7676 13.98C15.5676 14.26 15.4676 14.675 15.4676 15.225C15.4676 15.775 15.5676 16.19 15.7676 16.47C15.9676 16.75 16.2326 16.89 16.5626 16.89Z" fill="#ECE8E1"/>
</svg>
