<svg width="50" height="50" viewBox="0 0 50 50" fill="none" xmlns="http://www.w3.org/2000/svg">
<circle cx="25" cy="25" r="25" fill="#FF3D00"/>
<path d="M19.0631 25.95C17.7798 25.95 16.7298 25.5167 15.9131 24.65C15.1131 23.7667 14.7131 22.5917 14.7131 21.125C14.7131 19.6583 15.1131 18.4917 15.9131 17.625C16.7298 16.7417 17.7798 16.3 19.0631 16.3C20.3464 16.3 21.3881 16.7417 22.1881 17.625C22.9881 18.4917 23.3881 19.6583 23.3881 21.125C23.3881 22.5917 22.9881 23.7667 22.1881 24.65C21.3881 25.5167 20.3464 25.95 19.0631 25.95ZM29.4881 16.5H32.4631L20.5131 34H17.5381L29.4881 16.5ZM19.0631 23.9C19.6298 23.9 20.0714 23.6667 20.3881 23.2C20.7214 22.7333 20.8881 22.0417 20.8881 21.125C20.8881 20.2083 20.7214 19.5167 20.3881 19.05C20.0714 18.5833 19.6298 18.35 19.0631 18.35C18.5131 18.35 18.0714 18.5917 17.7381 19.075C17.4048 19.5417 17.2381 20.225 17.2381 21.125C17.2381 22.025 17.4048 22.7167 17.7381 23.2C18.0714 23.6667 18.5131 23.9 19.0631 23.9ZM30.9381 34.2C30.1048 34.2 29.3548 34.0083 28.6881 33.625C28.0381 33.225 27.5298 32.6583 27.1631 31.925C26.7964 31.1917 26.6131 30.3417 26.6131 29.375C26.6131 28.4083 26.7964 27.5583 27.1631 26.825C27.5298 26.0917 28.0381 25.5333 28.6881 25.15C29.3548 24.75 30.1048 24.55 30.9381 24.55C32.2214 24.55 33.2631 24.9917 34.0631 25.875C34.8798 26.7417 35.2881 27.9083 35.2881 29.375C35.2881 30.8417 34.8798 32.0167 34.0631 32.9C33.2631 33.7667 32.2214 34.2 30.9381 34.2ZM30.9381 32.15C31.5048 32.15 31.9464 31.9167 32.2631 31.45C32.5964 30.9667 32.7631 30.275 32.7631 29.375C32.7631 28.475 32.5964 27.7917 32.2631 27.325C31.9464 26.8417 31.5048 26.6 30.9381 26.6C30.3881 26.6 29.9464 26.8333 29.6131 27.3C29.2798 27.7667 29.1131 28.4583 29.1131 29.375C29.1131 30.2917 29.2798 30.9833 29.6131 31.45C29.9464 31.9167 30.3881 32.15 30.9381 32.15Z" fill="#ECE8E1"/>
</svg>
