<svg width="100" height="100" viewBox="0 0 100 100" fill="none" xmlns="http://www.w3.org/2000/svg">
<g clip-path="url(#clip0_463_13011)">
<circle cx="50" cy="50" r="50" fill="#C9A869" fill-opacity="0.15"/>
<circle cx="50" cy="50" r="21" fill="white"/>
<path d="M39.5835 38.8541V61.1458C39.5835 62.743 40.3127 63.9583 41.771 64.7916C43.2293 65.6249 44.6529 65.5555 46.0418 64.5832L63.3335 53.5416C64.6529 52.7083 65.3127 51.5277 65.3127 49.9999C65.3127 48.4721 64.6529 47.2916 63.3335 46.4582L46.0418 35.4166C44.6529 34.4444 43.2293 34.3749 41.771 35.2083C40.3127 36.0416 39.5835 37.2569 39.5835 38.8541ZM50.0002 91.6666C44.2363 91.6666 38.8196 90.5721 33.7502 88.3832C28.6807 86.1971 24.271 83.2291 20.521 79.4791C16.771 75.7291 13.8029 71.3194 11.6168 66.2499C9.42794 61.1805 8.3335 55.7638 8.3335 49.9999C8.3335 44.236 9.42794 38.8194 11.6168 33.7499C13.8029 28.6805 16.771 24.2708 20.521 20.5208C24.271 16.7708 28.6807 13.8013 33.7502 11.6124C38.8196 9.42631 44.2363 8.33325 50.0002 8.33325C55.764 8.33325 61.1807 9.42631 66.2502 11.6124C71.3196 13.8013 75.7293 16.7708 79.4793 20.5208C83.2293 24.2708 86.1974 28.6805 88.3835 33.7499C90.5724 38.8194 91.6668 44.236 91.6668 49.9999C91.6668 55.7638 90.5724 61.1805 88.3835 66.2499C86.1974 71.3194 83.2293 75.7291 79.4793 79.4791C75.7293 83.2291 71.3196 86.1971 66.2502 88.3832C61.1807 90.5721 55.764 91.6666 50.0002 91.6666Z" fill="#E4C58A"/>
</g>
<defs>
<clipPath id="clip0_463_13011">
<rect width="100" height="100" fill="white"/>
</clipPath>
</defs>
</svg>
