<svg width="18" height="18" viewBox="0 0 18 18" fill="none" xmlns="http://www.w3.org/2000/svg">
<g clip-path="url(#clip0_461_12960)">
<path d="M17.8582 9.3734L17.8295 9.40213L13.8174 13.4234C13.7084 13.5331 13.5603 13.5951 13.4056 13.5957C13.2932 13.5942 13.1837 13.5596 13.0907 13.4964C12.9977 13.4332 12.9253 13.344 12.8825 13.2401C12.8396 13.1361 12.8283 13.0218 12.8498 12.9114C12.8713 12.8011 12.9247 12.6994 13.0035 12.6191L16.0389 9.57447H6.70282C6.55045 9.57447 6.40431 9.51394 6.29657 9.40621C6.18882 9.29848 6.12829 9.15236 6.12829 9C6.12829 8.84764 6.18882 8.70152 6.29657 8.59379C6.40431 8.48606 6.55045 8.42553 6.70282 8.42553H16.0389L13.0035 5.38085C12.949 5.32899 12.9056 5.2666 12.876 5.19747C12.8464 5.12835 12.8311 5.05393 12.8311 4.97872C12.8311 4.90352 12.8464 4.8291 12.876 4.75997C12.9056 4.69085 12.949 4.62846 13.0035 4.5766C13.0562 4.52186 13.1194 4.47833 13.1893 4.44859C13.2592 4.41885 13.3344 4.40352 13.4104 4.40352C13.4864 4.40352 13.5616 4.41885 13.6315 4.44859C13.7015 4.47833 13.7647 4.52186 13.8174 4.5766L17.8295 8.59787L17.8582 8.6266L17.8774 8.64574C17.8967 8.669 17.9128 8.69476 17.9253 8.72234H17.9348C17.9777 8.80521 18 8.89714 18 8.99043C18 9.08371 17.9777 9.17563 17.9348 9.25851H17.9253C17.9128 9.28609 17.8967 9.31185 17.8774 9.33511L17.8582 9.3734ZM6.70282 16.8511H1.34056C1.28977 16.8511 1.24106 16.8309 1.20515 16.795C1.16923 16.7591 1.14905 16.7104 1.14905 16.6596V1.34043C1.14905 1.28964 1.16923 1.24093 1.20515 1.20502C1.24106 1.16911 1.28977 1.14894 1.34056 1.14894H6.70282C6.85519 1.14894 7.00133 1.08841 7.10907 0.980678C7.21682 0.872945 7.27735 0.726826 7.27735 0.574468C7.27735 0.42211 7.21682 0.275991 7.10907 0.168258C7.00133 0.0605241 6.85519 0 6.70282 0L1.34056 0C0.985024 0 0.644047 0.141223 0.392642 0.392602C0.141238 0.64398 0 0.984923 0 1.34043L0 16.6596C0 17.0151 0.141238 17.356 0.392642 17.6074C0.644047 17.8588 0.985024 18 1.34056 18H6.70282C6.85519 18 7.00133 17.9395 7.10907 17.8317C7.21682 17.724 7.27735 17.5779 7.27735 17.4255C7.27735 17.2732 7.21682 17.1271 7.10907 17.0193C7.00133 16.9116 6.85519 16.8511 6.70282 16.8511Z" fill="#ECE8E1"/>
</g>
<defs>
<clipPath id="clip0_461_12960">
<rect width="18" height="18" fill="white"/>
</clipPath>
</defs>
</svg>
