<svg width="1400" height="156" viewBox="0 0 1400 156" fill="none" xmlns="http://www.w3.org/2000/svg">
<g clip-path="url(#clip0_562_20336)">
<rect width="1407.59" height="40" transform="translate(0.109375 4.67749) rotate(4.44539)" fill="#131313"/>
<mask id="path-1-inside-1_562_20336" fill="white">
<path d="M-19.8301 3.1272L1415.84 114.74L1412.74 154.62L-22.9304 43.0069L-19.8301 3.1272Z"/>
</mask>
<path d="M-19.9076 4.12419L1415.76 115.737L1415.92 113.743L-19.7526 2.13021L-19.9076 4.12419ZM1412.82 153.623L-22.8529 42.0099L-23.0079 44.0039L1412.66 155.617L1412.82 153.623Z" fill="#8BD27C" mask="url(#path-1-inside-1_562_20336)"/>
<path d="M9.49786 19.9511L8.68401 30.4195L7.59231 30.3346L7.96784 25.5042L1.4176 24.995L1.04207 29.8254L-0.0645901 29.7394L0.749254 19.2709L1.85591 19.357L1.49317 24.0229L8.04341 24.5321L8.40615 19.8662L9.49786 19.9511ZM16.8019 31.1409C15.765 31.0603 14.8407 30.7577 14.0289 30.2332C13.2278 29.6995 12.6194 29.0103 12.2036 28.1655C11.7978 27.3215 11.6341 26.3961 11.7124 25.3891C11.7906 24.3821 12.0955 23.4931 12.6268 22.7219C13.1682 21.9516 13.8754 21.3697 14.7485 20.9761C15.6324 20.5734 16.5928 20.4124 17.6297 20.493C18.6665 20.5736 19.5809 20.8754 20.3727 21.3983C21.1746 21.9221 21.783 22.6113 22.198 23.466C22.6137 24.3108 22.7825 25.2367 22.7042 26.2436C22.6259 27.2506 22.3157 28.1442 21.7736 28.9246C21.2323 29.6949 20.525 30.2769 19.6519 30.6704C18.7887 31.0646 17.8387 31.2215 16.8019 31.1409ZM16.8786 30.1539C17.7061 30.2182 18.4682 30.0919 19.1648 29.7749C19.8623 29.448 20.426 28.9703 20.856 28.3417C21.2868 27.7032 21.534 26.9751 21.5975 26.1576C21.6611 25.3401 21.529 24.5876 21.2013 23.9001C20.8744 23.2027 20.3913 22.6435 19.752 22.2227C19.1134 21.7919 18.3804 21.5444 17.5529 21.48C16.7254 21.4157 15.958 21.5466 15.2506 21.8728C14.5539 22.1897 13.9852 22.6671 13.5444 23.3048C13.1144 23.9334 12.8676 24.6564 12.8041 25.474C12.7405 26.2915 12.8722 27.049 13.1991 27.7464C13.5368 28.4347 14.0249 28.9942 14.6634 29.425C15.3127 29.8466 16.0511 30.0895 16.8786 30.1539ZM31.5641 26.7669C32.2803 26.9731 32.8107 27.3102 33.1555 27.7783C33.501 28.2365 33.6466 28.8145 33.5924 29.5124C33.5218 30.4197 33.1436 31.0924 32.4575 31.5305C31.7815 31.9694 30.8203 32.1404 29.5741 32.0436L24.9381 31.6831L25.7519 21.2147L30.1038 21.5531C31.2204 21.6399 32.075 21.937 32.6674 22.4444C33.2599 22.9519 33.5224 23.6393 33.455 24.5067C33.4092 25.0949 33.2209 25.5818 32.89 25.9673C32.5599 26.3428 32.118 26.6094 31.5641 26.7669ZM26.4751 26.0403L29.6754 26.2891C30.483 26.3519 31.1139 26.2354 31.5682 25.9398C32.0325 25.6448 32.289 25.1833 32.3378 24.5552C32.3867 23.9271 32.2045 23.4315 31.7914 23.0684C31.3883 22.7061 30.783 22.4935 29.9754 22.4307L26.775 22.1819L26.4751 26.0403ZM29.6427 31.1612C31.4473 31.3015 32.4018 30.6987 32.5065 29.3527C32.6088 28.0367 31.7577 27.3086 29.9531 27.1683L26.4088 26.8927L26.0984 30.8857L29.6427 31.1612ZM36.9535 22.0856L38.0452 22.1704L37.3709 30.8443L44.745 22.6913L45.747 22.7692L44.9331 33.2376L43.8414 33.1527L44.5146 24.4939L37.1416 32.6319L36.1396 32.554L36.9535 22.0856ZM58.0282 23.724L57.2143 34.1924L56.1226 34.1075L56.4982 29.2771L49.9479 28.7679L49.5724 33.5983L48.4657 33.5122L49.2796 23.0438L50.3862 23.1299L50.0235 27.7958L56.5737 28.305L56.9365 23.6391L58.0282 23.724ZM64.5907 29.9363L62.198 29.7503L61.8248 34.5508L60.748 34.4671L61.5618 23.9987L62.6386 24.0824L62.2735 28.7782L64.6663 28.9643L68.5757 24.544L69.7721 24.637L65.4885 29.4193L69.1826 35.1228L67.9114 35.024L64.5907 29.9363ZM71.6973 24.7866L72.789 24.8715L72.1147 33.5453L79.4888 25.3924L80.4907 25.4703L79.6769 35.9387L78.5852 35.8538L79.2584 27.1949L71.8854 35.333L70.8834 35.2551L71.6973 24.7866Z" fill="#8BD27C"/>
<path d="M117.174 28.3219L116.36 38.7904L115.268 38.7055L115.644 33.8751L109.093 33.3658L108.718 38.1962L107.611 38.1102L108.425 27.6418L109.532 27.7278L109.169 32.3938L115.719 32.903L116.082 28.2371L117.174 28.3219ZM124.478 39.5117C123.441 39.4311 122.516 39.1286 121.705 38.6041C120.904 38.0704 120.295 37.3811 119.879 36.5364C119.474 35.6924 119.31 34.7669 119.388 33.7599C119.466 32.753 119.771 31.8639 120.303 31.0928C120.844 30.3224 121.551 29.7405 122.424 29.347C123.308 28.9443 124.269 28.7832 125.305 28.8639C126.342 28.9445 127.257 29.2462 128.049 29.7692C128.85 30.2929 129.459 30.9821 129.874 31.8369C130.29 32.6817 130.458 33.6075 130.38 34.6145C130.302 35.6214 129.991 36.5151 129.449 37.2954C128.908 38.0658 128.201 38.6477 127.328 39.0412C126.465 39.4355 125.515 39.5923 124.478 39.5117ZM124.554 38.5247C125.382 38.589 126.144 38.4627 126.841 38.1458C127.538 37.8188 128.102 37.3411 128.532 36.7125C128.963 36.074 129.21 35.346 129.273 34.5284C129.337 33.7109 129.205 32.9584 128.877 32.2709C128.55 31.5735 128.067 31.0144 127.428 30.5936C126.789 30.1628 126.056 29.9152 125.229 29.8509C124.401 29.7865 123.634 29.9175 122.926 30.2436C122.23 30.5606 121.661 31.0379 121.22 31.6757C120.79 32.3042 120.543 33.0273 120.48 33.8448C120.416 34.6623 120.548 35.4198 120.875 36.1173C121.213 36.8055 121.701 37.365 122.339 37.7958C122.988 38.2174 123.727 38.4604 124.554 38.5247ZM139.24 35.1378C139.956 35.3439 140.486 35.681 140.831 36.1492C141.177 36.6073 141.322 37.1853 141.268 37.8832C141.198 38.7905 140.819 39.4632 140.133 39.9014C139.457 40.3403 138.496 40.5113 137.25 40.4144L132.614 40.054L133.428 29.5856L137.78 29.9239C138.896 30.0107 139.751 30.3078 140.343 30.8153C140.936 31.3227 141.198 32.0101 141.131 32.8775C141.085 33.4658 140.897 33.9526 140.566 34.3381C140.236 34.7137 139.794 34.9802 139.24 35.1378ZM134.151 34.4111L137.351 34.6599C138.159 34.7227 138.79 34.6063 139.244 34.3106C139.708 34.0157 139.965 33.5542 140.014 32.9261C140.062 32.298 139.88 31.8024 139.467 31.4393C139.064 31.0769 138.459 30.8644 137.651 30.8016L134.451 30.5528L134.151 34.4111ZM137.318 39.5321C139.123 39.6724 140.078 39.0695 140.182 37.7236C140.285 36.4076 139.433 35.6794 137.629 35.5391L134.085 35.2636L133.774 39.2565L137.318 39.5321ZM144.629 30.4564L145.721 30.5413L145.047 39.2151L152.421 31.0621L153.423 31.14L152.609 41.6085L151.517 41.5236L152.19 32.8647L144.817 41.0027L143.815 40.9248L144.629 30.4564ZM165.704 32.0948L164.89 42.5632L163.798 42.4784L164.174 37.6479L157.624 37.1387L157.248 41.9691L156.142 41.8831L156.955 31.4147L158.062 31.5007L157.699 36.1666L164.25 36.6759L164.612 32.0099L165.704 32.0948ZM172.267 38.3072L169.874 38.1211L169.501 42.9217L168.424 42.838L169.238 32.3695L170.314 32.4532L169.949 37.1491L172.342 37.3351L176.251 32.9148L177.448 33.0078L173.164 37.7902L176.858 43.4937L175.587 43.3949L172.267 38.3072ZM179.373 33.1575L180.465 33.2424L179.79 41.9162L187.165 33.7632L188.167 33.8411L187.353 44.3095L186.261 44.2247L186.934 35.5658L179.561 43.7038L178.559 43.6259L179.373 33.1575Z" fill="#8BD27C"/>
<path d="M224.847 36.693L224.034 47.1614L222.942 47.0766L223.317 42.2461L216.767 41.7369L216.392 46.5673L215.285 46.4813L216.099 36.0129L217.206 36.0989L216.843 40.7648L223.393 41.2741L223.756 36.6082L224.847 36.693ZM232.151 47.8828C231.115 47.8022 230.19 47.4997 229.378 46.9752C228.577 46.4415 227.969 45.7522 227.553 44.9075C227.147 44.0635 226.984 43.138 227.062 42.131C227.14 41.1241 227.445 40.235 227.976 39.4639C228.518 38.6935 229.225 38.1116 230.098 37.7181C230.982 37.3154 231.942 37.1543 232.979 37.2349C234.016 37.3156 234.93 37.6173 235.722 38.1403C236.524 38.664 237.133 39.3532 237.548 40.208C237.963 41.0527 238.132 41.9786 238.054 42.9856C237.976 43.9925 237.665 44.8862 237.123 45.6665C236.582 46.4369 235.875 47.0188 235.002 47.4123C234.138 47.8066 233.188 47.9634 232.151 47.8828ZM232.228 46.8958C233.056 46.9601 233.818 46.8338 234.514 46.5169C235.212 46.1899 235.776 45.7122 236.206 45.0836C236.636 44.4451 236.884 43.7171 236.947 42.8995C237.011 42.082 236.879 41.3295 236.551 40.642C236.224 39.9446 235.741 39.3855 235.102 38.9647C234.463 38.5339 233.73 38.2863 232.903 38.222C232.075 38.1576 231.308 38.2885 230.6 38.6147C229.903 38.9317 229.335 39.409 228.894 40.0468C228.464 40.6753 228.217 41.3984 228.154 42.2159C228.09 43.0334 228.222 43.7909 228.549 44.4884C228.886 45.1766 229.374 45.7361 230.013 46.1669C230.662 46.5885 231.401 46.8315 232.228 46.8958ZM246.914 43.5089C247.63 43.715 248.16 44.0521 248.505 44.5203C248.851 44.9784 248.996 45.5564 248.942 46.2543C248.871 47.1616 248.493 47.8343 247.807 48.2724C247.131 48.7114 246.17 48.8824 244.924 48.7855L240.288 48.4251L241.102 37.9567L245.453 38.295C246.57 38.3818 247.425 38.6789 248.017 39.1864C248.609 39.6938 248.872 40.3812 248.805 41.2486C248.759 41.8369 248.571 42.3237 248.24 42.7092C247.91 43.0848 247.468 43.3513 246.914 43.5089ZM241.825 42.7822L245.025 43.031C245.833 43.0938 246.464 42.9774 246.918 42.6817C247.382 42.3868 247.639 41.9253 247.687 41.2972C247.736 40.6691 247.554 40.1735 247.141 39.8104C246.738 39.448 246.133 39.2355 245.325 39.1727L242.125 38.9239L241.825 42.7822ZM244.992 47.9032C246.797 48.0435 247.751 47.4406 247.856 46.0947C247.958 44.7787 247.107 44.0505 245.303 43.9102L241.758 43.6347L241.448 47.6276L244.992 47.9032ZM252.303 38.8275L253.395 38.9124L252.72 47.5862L260.095 39.4332L261.097 39.5111L260.283 49.9796L259.191 49.8947L259.864 41.2358L252.491 49.3738L251.489 49.2959L252.303 38.8275ZM273.378 40.4659L272.564 50.9343L271.472 50.8495L271.848 46.019L265.298 45.5098L264.922 50.3402L263.815 50.2542L264.629 39.7858L265.736 39.8718L265.373 44.5377L271.923 45.047L272.286 40.381L273.378 40.4659ZM279.94 46.6783L277.548 46.4922L277.174 51.2928L276.098 51.209L276.911 40.7406L277.988 40.8243L277.623 45.5202L280.016 45.7062L283.925 41.2859L285.122 41.3789L280.838 46.1613L284.532 51.8648L283.261 51.7659L279.94 46.6783ZM287.047 41.5286L288.139 41.6135L287.464 50.2873L294.838 42.1343L295.84 42.2122L295.027 52.6806L293.935 52.5958L294.608 43.9369L287.235 52.0749L286.233 51.997L287.047 41.5286Z" fill="#8BD27C"/>
<path d="M332.523 45.0639L331.709 55.5323L330.618 55.4474L330.993 50.617L324.443 50.1078L324.067 54.9382L322.961 54.8522L323.775 44.3837L324.881 44.4698L324.519 49.1357L331.069 49.6449L331.432 44.979L332.523 45.0639ZM339.827 56.2537C338.79 56.1731 337.866 55.8705 337.054 55.346C336.253 54.8123 335.645 54.1231 335.229 53.2783C334.823 52.4343 334.659 51.5088 334.738 50.5019C334.816 49.4949 335.121 48.6059 335.652 47.8347C336.194 47.0644 336.901 46.4824 337.774 46.0889C338.658 45.6862 339.618 45.5252 340.655 45.6058C341.692 45.6864 342.606 45.9882 343.398 46.5111C344.2 47.0349 344.808 47.7241 345.223 48.5788C345.639 49.4236 345.808 50.3495 345.73 51.3564C345.651 52.3634 345.341 53.257 344.799 54.0374C344.258 54.8077 343.55 55.3896 342.677 55.7832C341.814 56.1774 340.864 56.3343 339.827 56.2537ZM339.904 55.2666C340.731 55.331 341.494 55.2047 342.19 54.8877C342.888 54.5608 343.451 54.083 343.881 53.4545C344.312 52.816 344.559 52.0879 344.623 51.2704C344.686 50.4529 344.554 49.7004 344.227 49.0129C343.9 48.3154 343.417 47.7563 342.777 47.3355C342.139 46.9047 341.406 46.6572 340.578 46.5928C339.751 46.5285 338.983 46.6594 338.276 46.9855C337.579 47.3025 337.011 47.7799 336.57 48.4176C336.14 49.0462 335.893 49.7692 335.829 50.5868C335.766 51.4043 335.898 52.1618 336.225 52.8592C336.562 53.5475 337.05 54.107 337.689 54.5378C338.338 54.9594 339.076 55.2023 339.904 55.2666ZM354.589 51.8797C355.306 52.0858 355.836 52.423 356.181 52.8911C356.526 53.3493 356.672 53.9273 356.618 54.6252C356.547 55.5324 356.169 56.2052 355.483 56.6433C354.807 57.0822 353.846 57.2532 352.599 57.1563L347.963 56.7959L348.777 46.3275L353.129 46.6658C354.246 46.7527 355.1 47.0498 355.693 47.5572C356.285 48.0647 356.548 48.7521 356.48 49.6195C356.435 50.2077 356.246 50.6946 355.915 51.0801C355.585 51.4556 355.143 51.7222 354.589 51.8797ZM349.5 51.1531L352.701 51.4019C353.508 51.4647 354.139 51.3482 354.594 51.0525C355.058 50.7576 355.314 50.2961 355.363 49.668C355.412 49.0399 355.23 48.5443 354.817 48.1812C354.414 47.8189 353.808 47.6063 353.001 47.5435L349.8 47.2947L349.5 51.1531ZM352.668 56.274C354.473 56.4143 355.427 55.8115 355.532 54.4655C355.634 53.1495 354.783 52.4214 352.979 52.2811L349.434 52.0055L349.124 55.9985L352.668 56.274ZM359.979 47.1984L361.071 47.2832L360.396 55.9571L367.77 47.8041L368.772 47.882L367.958 58.3504L366.867 58.2655L367.54 49.6067L360.167 57.7447L359.165 57.6668L359.979 47.1984ZM381.054 48.8368L380.24 59.3052L379.148 59.2203L379.524 54.3899L372.973 53.8806L372.598 58.7111L371.491 58.625L372.305 48.1566L373.412 48.2427L373.049 52.9086L379.599 53.4178L379.962 48.7519L381.054 48.8368ZM387.616 55.0491L385.223 54.8631L384.85 59.6636L383.773 59.5799L384.587 49.1115L385.664 49.1952L385.299 53.891L387.692 54.077L391.601 49.6568L392.797 49.7498L388.514 54.5321L392.208 60.2356L390.937 60.1368L387.616 55.0491ZM394.723 49.8994L395.814 49.9843L395.14 58.6581L402.514 50.5052L403.516 50.5831L402.702 61.0515L401.611 60.9666L402.284 52.3077L394.911 60.4457L393.909 60.3679L394.723 49.8994Z" fill="#8BD27C"/>
<path d="M440.199 53.435L439.385 63.9034L438.293 63.8185L438.669 58.9881L432.119 58.4789L431.743 63.3093L430.637 63.2232L431.45 52.7548L432.557 52.8409L432.194 57.5068L438.745 58.016L439.107 53.3501L440.199 53.435ZM447.503 64.6248C446.466 64.5442 445.542 64.2416 444.73 63.7171C443.929 63.1834 443.321 62.4942 442.905 61.6494C442.499 60.8054 442.335 59.8799 442.414 58.873C442.492 57.866 442.797 56.977 443.328 56.2058C443.869 55.4355 444.577 54.8535 445.45 54.46C446.334 54.0573 447.294 53.8963 448.331 53.9769C449.368 54.0575 450.282 54.3593 451.074 54.8822C451.876 55.406 452.484 56.0952 452.899 56.9499C453.315 57.7947 453.484 58.7206 453.405 59.7275C453.327 60.7345 453.017 61.6281 452.475 62.4085C451.933 63.1788 451.226 63.7607 450.353 64.1543C449.49 64.5485 448.54 64.7054 447.503 64.6248ZM447.58 63.6377C448.407 63.7021 449.169 63.5758 449.866 63.2588C450.563 62.9319 451.127 62.4541 451.557 61.8256C451.988 61.187 452.235 60.459 452.299 59.6415C452.362 58.8239 452.23 58.0714 451.902 57.384C451.576 56.6865 451.092 56.1274 450.453 55.7066C449.815 55.2758 449.082 55.0282 448.254 54.9639C447.427 54.8996 446.659 55.0305 445.952 55.3566C445.255 55.6736 444.686 56.151 444.246 56.7887C443.816 57.4173 443.569 58.1403 443.505 58.9579C443.442 59.7754 443.573 60.5329 443.9 61.2303C444.238 61.9186 444.726 62.4781 445.365 62.9089C446.014 63.3304 446.752 63.5734 447.58 63.6377ZM462.265 60.2508C462.981 60.4569 463.512 60.7941 463.857 61.2622C464.202 61.7204 464.348 62.2984 464.294 62.9963C464.223 63.9035 463.845 64.5762 463.159 65.0144C462.483 65.4533 461.522 65.6243 460.275 65.5274L455.639 65.167L456.453 54.6986L460.805 55.0369C461.922 55.1237 462.776 55.4209 463.369 55.9283C463.961 56.4358 464.224 57.1232 464.156 57.9906C464.11 58.5788 463.922 59.0657 463.591 59.4512C463.261 59.8267 462.819 60.0933 462.265 60.2508ZM457.176 59.5242L460.377 59.773C461.184 59.8358 461.815 59.7193 462.269 59.4236C462.734 59.1287 462.99 58.6672 463.039 58.0391C463.088 57.411 462.906 56.9154 462.493 56.5523C462.089 56.19 461.484 55.9774 460.677 55.9146L457.476 55.6658L457.176 59.5242ZM460.344 64.6451C462.148 64.7854 463.103 64.1826 463.208 62.8366C463.31 61.5206 462.459 60.7924 460.654 60.6522L457.11 60.3766L456.8 64.3696L460.344 64.6451ZM467.655 55.5695L468.746 55.6543L468.072 64.3282L475.446 56.1752L476.448 56.2531L475.634 66.7215L474.543 66.6366L475.216 57.9777L467.843 66.1158L466.841 66.0379L467.655 55.5695ZM488.729 57.2079L487.916 67.6763L486.824 67.5914L487.199 62.761L480.649 62.2517L480.274 67.0822L479.167 66.9961L479.981 56.5277L481.087 56.6138L480.725 61.2797L487.275 61.7889L487.638 57.123L488.729 57.2079ZM495.292 63.4202L492.899 63.2342L492.526 68.0347L491.449 67.951L492.263 57.4826L493.34 57.5663L492.975 62.2621L495.367 62.4481L499.277 58.0279L500.473 58.1209L496.19 62.9032L499.884 68.6067L498.613 68.5079L495.292 63.4202ZM502.398 58.2705L503.49 58.3554L502.816 67.0292L510.19 58.8763L511.192 58.9542L510.378 69.4226L509.286 69.3377L509.96 60.6788L502.587 68.8168L501.585 68.7389L502.398 58.2705Z" fill="#8BD27C"/>
<path d="M547.873 61.8058L547.059 72.2742L545.967 72.1894L546.343 67.3589L539.793 66.8497L539.417 71.6801L538.31 71.5941L539.124 61.1257L540.231 61.2117L539.868 65.8776L546.418 66.3869L546.781 61.721L547.873 61.8058ZM555.177 72.9956C554.14 72.915 553.216 72.6124 552.404 72.088C551.603 71.5543 550.994 70.865 550.579 70.0203C550.173 69.1763 550.009 68.2508 550.087 67.2438C550.166 66.2369 550.47 65.3478 551.002 64.5767C551.543 63.8063 552.25 63.2244 553.124 62.8309C554.007 62.4282 554.968 62.2671 556.005 62.3477C557.042 62.4284 557.956 62.7301 558.748 63.2531C559.55 63.7768 560.158 64.466 560.573 65.3208C560.989 66.1655 561.157 67.0914 561.079 68.0984C561.001 69.1053 560.691 69.999 560.149 70.7793C559.607 71.5497 558.9 72.1316 558.027 72.5251C557.164 72.9194 556.214 73.0762 555.177 72.9956ZM555.254 72.0086C556.081 72.0729 556.843 71.9466 557.54 71.6297C558.237 71.3027 558.801 70.825 559.231 70.1964C559.662 69.5579 559.909 68.8299 559.973 68.0123C560.036 67.1948 559.904 66.4423 559.576 65.7548C559.249 65.0574 558.766 64.4983 558.127 64.0774C557.488 63.6467 556.755 63.3991 555.928 63.3348C555.1 63.2704 554.333 63.4013 553.626 63.7275C552.929 64.0444 552.36 64.5218 551.919 65.1596C551.489 65.7881 551.243 66.5112 551.179 67.3287C551.116 68.1462 551.247 68.9037 551.574 69.6012C551.912 70.2894 552.4 70.8489 553.038 71.2797C553.688 71.7013 554.426 71.9443 555.254 72.0086ZM569.939 68.6217C570.655 68.8278 571.186 69.1649 571.53 69.633C571.876 70.0912 572.022 70.6692 571.967 71.3671C571.897 72.2744 571.519 72.9471 570.833 73.3852C570.156 73.8242 569.195 73.9952 567.949 73.8983L563.313 73.5379L564.127 63.0695L568.479 63.4078C569.595 63.4946 570.45 63.7917 571.042 64.2992C571.635 64.8066 571.897 65.494 571.83 66.3614C571.784 66.9496 571.596 67.4365 571.265 67.822C570.935 68.1976 570.493 68.4641 569.939 68.6217ZM564.85 67.895L568.05 68.1438C568.858 68.2066 569.489 68.0902 569.943 67.7945C570.407 67.4996 570.664 67.0381 570.713 66.41C570.762 65.7819 570.58 65.2863 570.166 64.9232C569.763 64.5608 569.158 64.3483 568.35 64.2855L565.15 64.0367L564.85 67.895ZM568.018 73.016C569.822 73.1562 570.777 72.5534 570.881 71.2075C570.984 69.8915 570.133 69.1633 568.328 69.023L564.784 68.7475L564.473 72.7404L568.018 73.016ZM575.328 63.9403L576.42 64.0252L575.746 72.699L583.12 64.546L584.122 64.6239L583.308 75.0923L582.216 75.0075L582.89 66.3486L575.517 74.4866L574.515 74.4087L575.328 63.9403ZM596.403 65.5787L595.589 76.0471L594.498 75.9622L594.873 71.1318L588.323 70.6226L587.947 75.453L586.841 75.367L587.655 64.8986L588.761 64.9846L588.398 69.6505L594.949 70.1598L595.311 65.4938L596.403 65.5787ZM602.966 71.7911L600.573 71.605L600.2 76.4055L599.123 76.3218L599.937 65.8534L601.014 65.9371L600.649 70.633L603.041 70.819L606.951 66.3987L608.147 66.4917L603.864 71.2741L607.558 76.9776L606.286 76.8787L602.966 71.7911ZM610.072 66.6414L611.164 66.7263L610.49 75.4001L617.864 67.2471L618.866 67.325L618.052 77.7934L616.96 77.7086L617.633 69.0497L610.26 77.1877L609.258 77.1098L610.072 66.6414Z" fill="#8BD27C"/>
<path d="M655.549 70.1769L654.735 80.6453L653.643 80.5605L654.019 75.73L647.468 75.2208L647.093 80.0512L645.986 79.9652L646.8 69.4968L647.907 69.5828L647.544 74.2487L654.094 74.758L654.457 70.092L655.549 70.1769ZM662.853 81.3667C661.816 81.2861 660.891 80.9835 660.08 80.459C659.279 79.9254 658.67 79.2361 658.254 78.3914C657.849 77.5474 657.685 76.6219 657.763 75.6149C657.841 74.608 658.146 73.7189 658.678 72.9478C659.219 72.1774 659.926 71.5955 660.799 71.202C661.683 70.7993 662.644 70.6382 663.68 70.7188C664.717 70.7994 665.632 71.1012 666.424 71.6242C667.225 72.1479 667.834 72.8371 668.249 73.6919C668.665 74.5366 668.833 75.4625 668.755 76.4695C668.677 77.4764 668.366 78.3701 667.824 79.1504C667.283 79.9208 666.576 80.5027 665.703 80.8962C664.84 81.2905 663.89 81.4473 662.853 81.3667ZM662.929 80.3797C663.757 80.444 664.519 80.3177 665.216 80.0007C665.913 79.6738 666.477 79.1961 666.907 78.5675C667.338 77.929 667.585 77.201 667.648 76.3834C667.712 75.5659 667.58 74.8134 667.252 74.1259C666.925 73.4285 666.442 72.8694 665.803 72.4485C665.164 72.0177 664.431 71.7702 663.604 71.7059C662.776 71.6415 662.009 71.7724 661.301 72.0986C660.605 72.4155 660.036 72.8929 659.595 73.5307C659.165 74.1592 658.918 74.8823 658.855 75.6998C658.791 76.5173 658.923 77.2748 659.25 77.9723C659.588 78.6605 660.076 79.22 660.714 79.6508C661.363 80.0724 662.102 80.3154 662.929 80.3797ZM677.615 76.9928C678.331 77.1989 678.861 77.536 679.206 78.0041C679.552 78.4623 679.697 79.0403 679.643 79.7382C679.573 80.6455 679.194 81.3182 678.508 81.7563C677.832 82.1953 676.871 82.3663 675.625 82.2694L670.989 81.909L671.803 71.4406L676.155 71.7789C677.271 71.8657 678.126 72.1628 678.718 72.6703C679.311 73.1777 679.573 73.8651 679.506 74.7325C679.46 75.3207 679.272 75.8076 678.941 76.1931C678.611 76.5687 678.169 76.8352 677.615 76.9928ZM672.526 76.2661L675.726 76.5149C676.534 76.5777 677.165 76.4613 677.619 76.1656C678.083 75.8707 678.34 75.4092 678.389 74.7811C678.437 74.153 678.255 73.6574 677.842 73.2942C677.439 72.9319 676.834 72.7194 676.026 72.6566L672.826 72.4078L672.526 76.2661ZM675.693 81.387C677.498 81.5273 678.453 80.9245 678.557 79.5786C678.66 78.2625 677.808 77.5344 676.004 77.3941L672.46 77.1186L672.149 81.1115L675.693 81.387ZM683.004 72.3114L684.096 72.3963L683.422 81.0701L690.796 72.9171L691.798 72.995L690.984 83.4634L689.892 83.3786L690.565 74.7197L683.192 82.8577L682.19 82.7798L683.004 72.3114ZM704.079 73.9498L703.265 84.4182L702.173 84.3333L702.549 79.5029L695.999 78.9937L695.623 83.8241L694.517 83.7381L695.33 73.2697L696.437 73.3557L696.074 78.0216L702.625 78.5309L702.987 73.8649L704.079 73.9498ZM710.642 80.1621L708.249 79.9761L707.876 84.7766L706.799 84.6929L707.613 74.2245L708.689 74.3082L708.324 79.0041L710.717 79.1901L714.626 74.7698L715.823 74.8628L711.539 79.6452L715.233 85.3487L713.962 85.2498L710.642 80.1621ZM717.748 75.0125L718.84 75.0973L718.165 83.7712L725.54 75.6182L726.542 75.6961L725.728 86.1645L724.636 86.0796L725.309 77.4208L717.936 85.5588L716.934 85.4809L717.748 75.0125Z" fill="#8BD27C"/>
<path d="M763.223 78.5478L762.41 89.0162L761.318 88.9313L761.693 84.1009L755.143 83.5917L754.768 88.4221L753.661 88.336L754.475 77.8676L755.582 77.9537L755.219 82.6196L761.769 83.1288L762.132 78.4629L763.223 78.5478ZM770.527 89.7376C769.491 89.6569 768.566 89.3544 767.754 88.8299C766.953 88.2962 766.345 87.607 765.929 86.7622C765.523 85.9182 765.36 84.9927 765.438 83.9858C765.516 82.9788 765.821 82.0898 766.352 81.3186C766.894 80.5483 767.601 79.9663 768.474 79.5728C769.358 79.1701 770.318 79.0091 771.355 79.0897C772.392 79.1703 773.306 79.4721 774.098 79.995C774.9 80.5187 775.509 81.208 775.924 82.0627C776.339 82.9075 776.508 83.8333 776.43 84.8403C776.351 85.8473 776.041 86.7409 775.499 87.5212C774.958 88.2916 774.251 88.8735 773.377 89.267C772.514 89.6613 771.564 89.8182 770.527 89.7376ZM770.604 88.7505C771.432 88.8149 772.194 88.6886 772.89 88.3716C773.588 88.0447 774.152 87.5669 774.582 86.9384C775.012 86.2998 775.26 85.5718 775.323 84.7543C775.387 83.9367 775.255 83.1842 774.927 82.4968C774.6 81.7993 774.117 81.2402 773.478 80.8194C772.839 80.3886 772.106 80.141 771.279 80.0767C770.451 80.0124 769.684 80.1433 768.976 80.4694C768.279 80.7864 767.711 81.2637 767.27 81.9015C766.84 82.5301 766.593 83.2531 766.53 84.0706C766.466 84.8882 766.598 85.6457 766.925 86.3431C767.262 87.0313 767.75 87.5909 768.389 88.0216C769.038 88.4432 769.777 88.6862 770.604 88.7505ZM785.29 85.3636C786.006 85.5697 786.536 85.9069 786.881 86.375C787.227 86.8332 787.372 87.4112 787.318 88.1091C787.247 89.0163 786.869 89.689 786.183 90.1272C785.507 90.5661 784.546 90.7371 783.3 90.6402L778.664 90.2798L779.478 79.8114L783.829 80.1497C784.946 80.2365 785.801 80.5337 786.393 81.0411C786.985 81.5486 787.248 82.236 787.181 83.1034C787.135 83.6916 786.947 84.1785 786.616 84.564C786.286 84.9395 785.844 85.2061 785.29 85.3636ZM780.201 84.637L783.401 84.8858C784.209 84.9486 784.84 84.8321 785.294 84.5364C785.758 84.2415 786.015 83.78 786.063 83.1519C786.112 82.5238 785.93 82.0282 785.517 81.6651C785.114 81.3028 784.509 81.0902 783.701 81.0274L780.501 80.7786L780.201 84.637ZM783.368 89.7579C785.173 89.8982 786.127 89.2954 786.232 87.9494C786.334 86.6334 785.483 85.9052 783.679 85.7649L780.134 85.4894L779.824 89.4824L783.368 89.7579ZM790.679 80.6822L791.771 80.7671L791.096 89.4409L798.471 81.288L799.473 81.3659L798.659 91.8343L797.567 91.7494L798.24 83.0905L790.867 91.2286L789.865 91.1507L790.679 80.6822ZM811.754 82.3207L810.94 92.7891L809.848 92.7042L810.224 87.8738L803.674 87.3645L803.298 92.195L802.191 92.1089L803.005 81.6405L804.112 81.7265L803.749 86.3925L810.299 86.9017L810.662 82.2358L811.754 82.3207ZM818.316 88.533L815.924 88.347L815.55 93.1475L814.474 93.0638L815.287 82.5954L816.364 82.6791L815.999 87.3749L818.392 87.5609L822.301 83.1406L823.498 83.2337L819.214 88.016L822.908 93.7195L821.637 93.6207L818.316 88.533ZM825.423 83.3833L826.515 83.4682L825.84 92.142L833.214 83.9891L834.216 84.067L833.402 94.5354L832.311 94.4505L832.984 85.7916L825.611 93.9296L824.609 93.8517L825.423 83.3833Z" fill="#8BD27C"/>
<path d="M870.898 86.9189L870.084 97.3873L868.993 97.3024L869.368 92.472L862.818 91.9627L862.442 96.7932L861.336 96.7071L862.15 86.2387L863.256 86.3248L862.894 90.9907L869.444 91.4999L869.807 86.834L870.898 86.9189ZM878.202 98.1087C877.165 98.028 876.241 97.7255 875.429 97.201C874.628 96.6673 874.02 95.9781 873.604 95.1333C873.198 94.2893 873.034 93.3638 873.113 92.3569C873.191 91.3499 873.496 90.4609 874.027 89.6897C874.569 88.9194 875.276 88.3374 876.149 87.9439C877.033 87.5412 877.993 87.3802 879.03 87.4608C880.067 87.5414 880.981 87.8432 881.773 88.3661C882.575 88.8898 883.183 89.5791 883.598 90.4338C884.014 91.2786 884.183 92.2044 884.105 93.2114C884.026 94.2184 883.716 95.112 883.174 95.8923C882.633 96.6627 881.925 97.2446 881.052 97.6381C880.189 98.0324 879.239 98.1893 878.202 98.1087ZM878.279 97.1216C879.106 97.186 879.869 97.0596 880.565 96.7427C881.263 96.4158 881.826 95.938 882.256 95.3095C882.687 94.6709 882.934 93.9429 882.998 93.1254C883.061 92.3078 882.929 91.5553 882.602 90.8679C882.275 90.1704 881.792 89.6113 881.152 89.1905C880.514 88.7597 879.781 88.5121 878.953 88.4478C878.126 88.3835 877.358 88.5144 876.651 88.8405C875.954 89.1575 875.386 89.6348 874.945 90.2726C874.515 90.9012 874.268 91.6242 874.204 92.4417C874.141 93.2593 874.273 94.0168 874.6 94.7142C874.937 95.4024 875.425 95.962 876.064 96.3927C876.713 96.8143 877.451 97.0573 878.279 97.1216ZM892.964 93.7347C893.681 93.9408 894.211 94.278 894.556 94.7461C894.901 95.2042 895.047 95.7823 894.993 96.4802C894.922 97.3874 894.544 98.0601 893.858 98.4983C893.182 98.9372 892.221 99.1082 890.974 99.0113L886.338 98.6509L887.152 88.1825L891.504 88.5208C892.621 88.6076 893.475 88.9048 894.068 89.4122C894.66 89.9197 894.923 90.6071 894.855 91.4745C894.81 92.0627 894.621 92.5496 894.29 92.9351C893.96 93.3106 893.518 93.5772 892.964 93.7347ZM887.875 93.0081L891.076 93.2569C891.883 93.3197 892.514 93.2032 892.969 92.9075C893.433 92.6126 893.689 92.1511 893.738 91.523C893.787 90.8949 893.605 90.3993 893.192 90.0362C892.789 89.6739 892.183 89.4613 891.376 89.3985L888.175 89.1497L887.875 93.0081ZM891.043 98.129C892.848 98.2693 893.802 97.6665 893.907 96.3205C894.009 95.0045 893.158 94.2763 891.354 94.136L887.809 93.8605L887.499 97.8534L891.043 98.129ZM898.354 89.0533L899.446 89.1382L898.771 97.812L906.145 89.6591L907.147 89.737L906.333 100.205L905.242 100.121L905.915 91.4616L898.542 99.5996L897.54 99.5218L898.354 89.0533ZM919.429 90.6917L918.615 101.16L917.523 101.075L917.899 96.2449L911.348 95.7356L910.973 100.566L909.866 100.48L910.68 90.0116L911.787 90.0976L911.424 94.7636L917.974 95.2728L918.337 90.6069L919.429 90.6917ZM925.991 96.9041L923.598 96.7181L923.225 101.519L922.148 101.435L922.962 90.9665L924.039 91.0502L923.674 95.746L926.067 95.932L929.976 91.5117L931.172 91.6047L926.889 96.3871L930.583 102.091L929.312 101.992L925.991 96.9041ZM933.098 91.7544L934.189 91.8393L933.515 100.513L940.889 92.3602L941.891 92.438L941.077 102.906L939.986 102.822L940.659 94.1627L933.286 102.301L932.284 102.223L933.098 91.7544Z" fill="#8BD27C"/>
<path d="M978.574 95.2897L977.76 105.758L976.668 105.673L977.044 100.843L970.494 100.334L970.118 105.164L969.012 105.078L969.825 94.6096L970.932 94.6956L970.569 99.3615L977.12 99.8708L977.482 95.2048L978.574 95.2897ZM985.878 106.479C984.841 106.399 983.917 106.096 983.105 105.572C982.304 105.038 981.696 104.349 981.28 103.504C980.874 102.66 980.71 101.735 980.789 100.728C980.867 99.7208 981.172 98.8317 981.703 98.0606C982.244 97.2902 982.952 96.7083 983.825 96.3148C984.709 95.9121 985.669 95.751 986.706 95.8316C987.743 95.9122 988.657 96.214 989.449 96.737C990.251 97.2607 990.859 97.9499 991.274 98.8047C991.69 99.6494 991.859 100.575 991.78 101.582C991.702 102.589 991.392 103.483 990.85 104.263C990.308 105.034 989.601 105.615 988.728 106.009C987.865 106.403 986.915 106.56 985.878 106.479ZM985.955 105.492C986.782 105.557 987.544 105.43 988.241 105.114C988.938 104.787 989.502 104.309 989.932 103.68C990.363 103.042 990.61 102.314 990.674 101.496C990.737 100.679 990.605 99.9262 990.277 99.2387C989.951 98.5413 989.467 97.9821 988.828 97.5613C988.19 97.1305 987.457 96.883 986.629 96.8187C985.802 96.7543 985.034 96.8852 984.327 97.2114C983.63 97.5283 983.061 98.0057 982.621 98.6434C982.191 99.272 981.944 99.9951 981.88 100.813C981.817 101.63 981.948 102.388 982.275 103.085C982.613 103.773 983.101 104.333 983.74 104.764C984.389 105.185 985.127 105.428 985.955 105.492ZM1000.64 102.106C1001.36 102.312 1001.89 102.649 1002.23 103.117C1002.58 103.575 1002.72 104.153 1002.67 104.851C1002.6 105.758 1002.22 106.431 1001.53 106.869C1000.86 107.308 999.897 107.479 998.65 107.382L994.014 107.022L994.828 96.5533L999.18 96.8917C1000.3 96.9785 1001.15 97.2756 1001.74 97.7831C1002.34 98.2905 1002.6 98.9779 1002.53 99.8453C1002.49 100.434 1002.3 100.92 1001.97 101.306C1001.64 101.681 1001.19 101.948 1000.64 102.106ZM995.551 101.379L998.752 101.628C999.559 101.691 1000.19 101.574 1000.64 101.278C1001.11 100.983 1001.37 100.522 1001.41 99.8939C1001.46 99.2658 1001.28 98.7702 1000.87 98.407C1000.46 98.0447 999.859 97.8321 999.052 97.7694L995.851 97.5206L995.551 101.379ZM998.719 106.5C1000.52 106.64 1001.48 106.037 1001.58 104.691C1001.68 103.375 1000.83 102.647 999.029 102.507L995.485 102.231L995.175 106.224L998.719 106.5ZM1006.03 97.4242L1007.12 97.5091L1006.45 106.183L1013.82 98.0299L1014.82 98.1078L1014.01 108.576L1012.92 108.491L1013.59 99.8325L1006.22 107.97L1005.22 107.893L1006.03 97.4242ZM1027.1 99.0626L1026.29 109.531L1025.2 109.446L1025.57 104.616L1019.02 104.106L1018.65 108.937L1017.54 108.851L1018.36 98.3825L1019.46 98.4685L1019.1 103.134L1025.65 103.644L1026.01 98.9777L1027.1 99.0626ZM1033.67 105.275L1031.27 105.089L1030.9 109.889L1029.82 109.806L1030.64 99.3373L1031.71 99.421L1031.35 104.117L1033.74 104.303L1037.65 99.8826L1038.85 99.9756L1034.56 104.758L1038.26 110.461L1036.99 110.363L1033.67 105.275ZM1040.77 100.125L1041.87 100.21L1041.19 108.884L1048.56 100.731L1049.57 100.809L1048.75 111.277L1047.66 111.192L1048.33 102.534L1040.96 110.672L1039.96 110.594L1040.77 100.125Z" fill="#8BD27C"/>
<path d="M1086.25 103.661L1085.43 114.129L1084.34 114.044L1084.72 109.214L1078.17 108.705L1077.79 113.535L1076.69 113.449L1077.5 102.981L1078.61 103.067L1078.24 107.733L1084.79 108.242L1085.16 103.576L1086.25 103.661ZM1093.55 114.851C1092.52 114.77 1091.59 114.467 1090.78 113.943C1089.98 113.409 1089.37 112.72 1088.95 111.875C1088.55 111.031 1088.39 110.106 1088.46 109.099C1088.54 108.092 1088.85 107.203 1089.38 106.432C1089.92 105.661 1090.63 105.079 1091.5 104.686C1092.38 104.283 1093.34 104.122 1094.38 104.203C1095.42 104.283 1096.33 104.585 1097.12 105.108C1097.93 105.632 1098.53 106.321 1098.95 107.176C1099.36 108.021 1099.53 108.946 1099.46 109.953C1099.38 110.96 1099.07 111.854 1098.52 112.634C1097.98 113.405 1097.28 113.987 1096.4 114.38C1095.54 114.774 1094.59 114.931 1093.55 114.851ZM1093.63 113.864C1094.46 113.928 1095.22 113.802 1095.92 113.485C1096.61 113.158 1097.18 112.68 1097.61 112.051C1098.04 111.413 1098.28 110.685 1098.35 109.867C1098.41 109.05 1098.28 108.297 1097.95 107.61C1097.63 106.912 1097.14 106.353 1096.5 105.932C1095.86 105.502 1095.13 105.254 1094.3 105.19C1093.48 105.125 1092.71 105.256 1092 105.582C1091.3 105.899 1090.74 106.377 1090.3 107.015C1089.87 107.643 1089.62 108.366 1089.56 109.184C1089.49 110.001 1089.62 110.759 1089.95 111.456C1090.29 112.144 1090.78 112.704 1091.41 113.135C1092.06 113.556 1092.8 113.799 1093.63 113.864ZM1108.32 110.477C1109.03 110.683 1109.56 111.02 1109.91 111.488C1110.25 111.946 1110.4 112.524 1110.34 113.222C1110.27 114.129 1109.89 114.802 1109.21 115.24C1108.53 115.679 1107.57 115.85 1106.33 115.753L1101.69 115.393L1102.5 104.924L1106.85 105.263C1107.97 105.35 1108.83 105.647 1109.42 106.154C1110.01 106.662 1110.27 107.349 1110.21 108.216C1110.16 108.805 1109.97 109.291 1109.64 109.677C1109.31 110.053 1108.87 110.319 1108.32 110.477ZM1103.23 109.75L1106.43 109.999C1107.23 110.062 1107.86 109.945 1108.32 109.649C1108.78 109.355 1109.04 108.893 1109.09 108.265C1109.14 107.637 1108.96 107.141 1108.54 106.778C1108.14 106.416 1107.53 106.203 1106.73 106.14L1103.53 105.892L1103.23 109.75ZM1106.39 114.871C1108.2 115.011 1109.15 114.408 1109.26 113.062C1109.36 111.746 1108.51 111.018 1106.7 110.878L1103.16 110.602L1102.85 114.595L1106.39 114.871ZM1113.7 105.795L1114.8 105.88L1114.12 114.554L1121.5 106.401L1122.5 106.479L1121.68 116.947L1120.59 116.862L1121.27 108.204L1113.89 116.342L1112.89 116.264L1113.7 105.795ZM1134.78 107.434L1133.97 117.902L1132.87 117.817L1133.25 112.987L1126.7 112.478L1126.32 117.308L1125.22 117.222L1126.03 106.754L1127.14 106.84L1126.77 111.506L1133.32 112.015L1133.69 107.349L1134.78 107.434ZM1141.34 113.646L1138.95 113.46L1138.58 118.261L1137.5 118.177L1138.31 107.708L1139.39 107.792L1139.02 112.488L1141.42 112.674L1145.33 108.254L1146.52 108.347L1142.24 113.129L1145.93 118.833L1144.66 118.734L1141.34 113.646ZM1148.45 108.496L1149.54 108.581L1148.87 117.255L1156.24 109.102L1157.24 109.18L1156.43 119.648L1155.34 119.564L1156.01 110.905L1148.64 119.043L1147.63 118.965L1148.45 108.496Z" fill="#8BD27C"/>
<path d="M1193.92 112.032L1193.11 122.5L1192.02 122.415L1192.39 117.585L1185.84 117.076L1185.47 121.906L1184.36 121.82L1185.18 111.352L1186.28 111.438L1185.92 116.103L1192.47 116.613L1192.83 111.947L1193.92 112.032ZM1201.23 123.221C1200.19 123.141 1199.27 122.838 1198.45 122.314C1197.65 121.78 1197.05 121.091 1196.63 120.246C1196.22 119.402 1196.06 118.477 1196.14 117.47C1196.22 116.463 1196.52 115.574 1197.05 114.803C1197.59 114.032 1198.3 113.45 1199.17 113.057C1200.06 112.654 1201.02 112.493 1202.06 112.574C1203.09 112.654 1204.01 112.956 1204.8 113.479C1205.6 114.003 1206.21 114.692 1206.62 115.547C1207.04 116.391 1207.21 117.317 1207.13 118.324C1207.05 119.331 1206.74 120.225 1206.2 121.005C1205.66 121.775 1204.95 122.357 1204.08 122.751C1203.21 123.145 1202.26 123.302 1201.23 123.221ZM1201.3 122.234C1202.13 122.299 1202.89 122.172 1203.59 121.855C1204.29 121.529 1204.85 121.051 1205.28 120.422C1205.71 119.784 1205.96 119.056 1206.02 118.238C1206.09 117.421 1205.95 116.668 1205.63 115.981C1205.3 115.283 1204.82 114.724 1204.18 114.303C1203.54 113.872 1202.81 113.625 1201.98 113.561C1201.15 113.496 1200.38 113.627 1199.68 113.953C1198.98 114.27 1198.41 114.748 1197.97 115.385C1197.54 116.014 1197.29 116.737 1197.23 117.555C1197.17 118.372 1197.3 119.13 1197.62 119.827C1197.96 120.515 1198.45 121.075 1199.09 121.506C1199.74 121.927 1200.48 122.17 1201.3 122.234ZM1215.99 118.847C1216.71 119.054 1217.24 119.391 1217.58 119.859C1217.93 120.317 1218.07 120.895 1218.02 121.593C1217.95 122.5 1217.57 123.173 1216.88 123.611C1216.21 124.05 1215.25 124.221 1214 124.124L1209.36 123.764L1210.18 113.295L1214.53 113.634C1215.65 113.72 1216.5 114.018 1217.09 114.525C1217.69 115.032 1217.95 115.72 1217.88 116.587C1217.84 117.175 1217.65 117.662 1217.32 118.048C1216.99 118.423 1216.54 118.69 1215.99 118.847ZM1210.9 118.121L1214.1 118.37C1214.91 118.432 1215.54 118.316 1215.99 118.02C1216.46 117.725 1216.71 117.264 1216.76 116.636C1216.81 116.008 1216.63 115.512 1216.22 115.149C1215.81 114.787 1215.21 114.574 1214.4 114.511L1211.2 114.263L1210.9 118.121ZM1214.07 123.242C1215.87 123.382 1216.83 122.779 1216.93 121.433C1217.03 120.117 1216.18 119.389 1214.38 119.249L1210.83 118.973L1210.52 122.966L1214.07 123.242ZM1221.38 114.166L1222.47 114.251L1221.8 122.925L1229.17 114.772L1230.17 114.85L1229.36 125.318L1228.27 125.233L1228.94 116.574L1221.57 124.712L1220.57 124.635L1221.38 114.166ZM1242.45 115.805L1241.64 126.273L1240.55 126.188L1240.92 121.358L1234.37 120.848L1234 125.679L1232.89 125.593L1233.71 115.124L1234.81 115.21L1234.45 119.876L1241 120.386L1241.36 115.72L1242.45 115.805ZM1249.02 122.017L1246.62 121.831L1246.25 126.631L1245.17 126.548L1245.99 116.079L1247.06 116.163L1246.7 120.859L1249.09 121.045L1253 116.625L1254.2 116.718L1249.91 121.5L1253.61 127.203L1252.34 127.105L1249.02 122.017ZM1256.12 116.867L1257.21 116.952L1256.54 125.626L1263.91 117.473L1264.92 117.551L1264.1 128.019L1263.01 127.934L1263.68 119.276L1256.31 127.414L1255.31 127.336L1256.12 116.867Z" fill="#8BD27C"/>
<path d="M1301.6 120.403L1300.79 130.871L1299.69 130.786L1300.07 125.956L1293.52 125.447L1293.14 130.277L1292.04 130.191L1292.85 119.723L1293.96 119.809L1293.59 124.475L1300.14 124.984L1300.51 120.318L1301.6 120.403ZM1308.9 131.593C1307.87 131.512 1306.94 131.209 1306.13 130.685C1305.33 130.151 1304.72 129.462 1304.31 128.617C1303.9 127.773 1303.74 126.848 1303.81 125.841C1303.89 124.834 1304.2 123.945 1304.73 123.174C1305.27 122.403 1305.98 121.821 1306.85 121.428C1307.73 121.025 1308.69 120.864 1309.73 120.945C1310.77 121.025 1311.68 121.327 1312.47 121.85C1313.28 122.374 1313.88 123.063 1314.3 123.918C1314.72 124.762 1314.88 125.688 1314.81 126.695C1314.73 127.702 1314.42 128.596 1313.88 129.376C1313.33 130.147 1312.63 130.729 1311.75 131.122C1310.89 131.516 1309.94 131.673 1308.9 131.593ZM1308.98 130.606C1309.81 130.67 1310.57 130.544 1311.27 130.227C1311.96 129.9 1312.53 129.422 1312.96 128.793C1313.39 128.155 1313.64 127.427 1313.7 126.609C1313.76 125.792 1313.63 125.039 1313.3 124.352C1312.98 123.654 1312.49 123.095 1311.85 122.674C1311.21 122.244 1310.48 121.996 1309.65 121.932C1308.83 121.867 1308.06 121.998 1307.35 122.324C1306.66 122.641 1306.09 123.119 1305.65 123.756C1305.22 124.385 1304.97 125.108 1304.91 125.926C1304.84 126.743 1304.97 127.501 1305.3 128.198C1305.64 128.886 1306.13 129.446 1306.76 129.877C1307.41 130.298 1308.15 130.541 1308.98 130.606ZM1323.67 127.219C1324.38 127.425 1324.91 127.762 1325.26 128.23C1325.6 128.688 1325.75 129.266 1325.69 129.964C1325.62 130.871 1325.25 131.544 1324.56 131.982C1323.88 132.421 1322.92 132.592 1321.68 132.495L1317.04 132.135L1317.85 121.666L1322.21 122.005C1323.32 122.092 1324.18 122.389 1324.77 122.896C1325.36 123.404 1325.62 124.091 1325.56 124.958C1325.51 125.547 1325.32 126.033 1324.99 126.419C1324.66 126.794 1324.22 127.061 1323.67 127.219ZM1318.58 126.492L1321.78 126.741C1322.58 126.804 1323.22 126.687 1323.67 126.391C1324.13 126.097 1324.39 125.635 1324.44 125.007C1324.49 124.379 1324.31 123.883 1323.89 123.52C1323.49 123.158 1322.88 122.945 1322.08 122.882L1318.88 122.634L1318.58 126.492ZM1321.74 131.613C1323.55 131.753 1324.5 131.15 1324.61 129.804C1324.71 128.488 1323.86 127.76 1322.05 127.62L1318.51 127.344L1318.2 131.337L1321.74 131.613ZM1329.06 122.537L1330.15 122.622L1329.47 131.296L1336.85 123.143L1337.85 123.221L1337.03 133.689L1335.94 133.604L1336.62 124.946L1329.24 133.084L1328.24 133.006L1329.06 122.537ZM1350.13 124.176L1349.32 134.644L1348.22 134.559L1348.6 129.729L1342.05 129.22L1341.67 134.05L1340.57 133.964L1341.38 123.495L1342.49 123.582L1342.13 128.247L1348.68 128.757L1349.04 124.091L1350.13 124.176ZM1356.69 130.388L1354.3 130.202L1353.93 135.002L1352.85 134.919L1353.66 124.45L1354.74 124.534L1354.38 129.23L1356.77 129.416L1360.68 124.996L1361.87 125.089L1357.59 129.871L1361.28 135.574L1360.01 135.476L1356.69 130.388ZM1363.8 125.238L1364.89 125.323L1364.22 133.997L1371.59 125.844L1372.59 125.922L1371.78 136.39L1370.69 136.305L1371.36 127.647L1363.99 135.785L1362.99 135.707L1363.8 125.238Z" fill="#8BD27C"/>
<path d="M1409.27 128.774L1408.46 139.242L1407.37 139.157L1407.74 134.327L1401.19 133.817L1400.82 138.648L1399.71 138.562L1400.53 128.093L1401.63 128.179L1401.27 132.845L1407.82 133.355L1408.18 128.689L1409.27 128.774ZM1416.58 139.963C1415.54 139.883 1414.62 139.58 1413.81 139.056C1413 138.522 1412.4 137.833 1411.98 136.988C1411.57 136.144 1411.41 135.219 1411.49 134.212C1411.57 133.205 1411.87 132.316 1412.4 131.544C1412.94 130.774 1413.65 130.192 1414.52 129.799C1415.41 129.396 1416.37 129.235 1417.41 129.316C1418.44 129.396 1419.36 129.698 1420.15 130.221C1420.95 130.745 1421.56 131.434 1421.97 132.289C1422.39 133.133 1422.56 134.059 1422.48 135.066C1422.4 136.073 1422.09 136.967 1421.55 137.747C1421.01 138.517 1420.3 139.099 1419.43 139.493C1418.57 139.887 1417.62 140.044 1416.58 139.963ZM1416.65 138.976C1417.48 139.041 1418.24 138.914 1418.94 138.597C1419.64 138.271 1420.2 137.793 1420.63 137.164C1421.06 136.526 1421.31 135.798 1421.37 134.98C1421.44 134.163 1421.31 133.41 1420.98 132.723C1420.65 132.025 1420.17 131.466 1419.53 131.045C1418.89 130.614 1418.16 130.367 1417.33 130.303C1416.5 130.238 1415.73 130.369 1415.03 130.695C1414.33 131.012 1413.76 131.49 1413.32 132.127C1412.89 132.756 1412.64 133.479 1412.58 134.296C1412.52 135.114 1412.65 135.871 1412.98 136.569C1413.31 137.257 1413.8 137.817 1414.44 138.247C1415.09 138.669 1415.83 138.912 1416.65 138.976ZM1431.34 135.589C1432.06 135.796 1432.59 136.133 1432.93 136.601C1433.28 137.059 1433.42 137.637 1433.37 138.335C1433.3 139.242 1432.92 139.915 1432.23 140.353C1431.56 140.792 1430.6 140.963 1429.35 140.866L1424.71 140.506L1425.53 130.037L1429.88 130.376C1431 130.462 1431.85 130.76 1432.44 131.267C1433.04 131.774 1433.3 132.462 1433.23 133.329C1433.19 133.917 1433 134.404 1432.67 134.79C1432.34 135.165 1431.89 135.432 1431.34 135.589ZM1426.25 134.863L1429.45 135.112C1430.26 135.174 1430.89 135.058 1431.34 134.762C1431.81 134.467 1432.07 134.006 1432.11 133.378C1432.16 132.75 1431.98 132.254 1431.57 131.891C1431.16 131.529 1430.56 131.316 1429.75 131.253L1426.55 131.004L1426.25 134.863ZM1429.42 139.984C1431.22 140.124 1432.18 139.521 1432.28 138.175C1432.39 136.859 1431.53 136.131 1429.73 135.991L1426.19 135.715L1425.87 139.708L1429.42 139.984ZM1436.73 130.908L1437.82 130.993L1437.15 139.667L1444.52 131.514L1445.52 131.592L1444.71 142.06L1443.62 141.975L1444.29 133.316L1436.92 141.454L1435.92 141.376L1436.73 130.908ZM1457.8 132.546L1456.99 143.015L1455.9 142.93L1456.27 138.1L1449.72 137.59L1449.35 142.421L1448.24 142.335L1449.06 131.866L1450.16 131.952L1449.8 136.618L1456.35 137.128L1456.71 132.462L1457.8 132.546ZM1464.37 138.759L1461.97 138.573L1461.6 143.373L1460.52 143.29L1461.34 132.821L1462.41 132.905L1462.05 137.601L1464.44 137.787L1468.35 133.366L1469.55 133.459L1465.26 138.242L1468.96 143.945L1467.69 143.847L1464.37 138.759ZM1471.47 133.609L1472.57 133.694L1471.89 142.368L1479.27 134.215L1480.27 134.293L1479.45 144.761L1478.36 144.676L1479.03 136.017L1471.66 144.155L1470.66 144.078L1471.47 133.609Z" fill="#8BD27C"/>
</g>
<defs>
<clipPath id="clip0_562_20336">
<rect width="1400" height="156" fill="white"/>
</clipPath>
</defs>
</svg>
