<svg width="120" height="77" viewBox="0 0 120 77" fill="none" xmlns="http://www.w3.org/2000/svg">
<g clip-path="url(#clip0_596_12567)">
<path d="M109.254 0.588623H10.7466C10.3363 0.588623 9.92529 0.588623 9.51576 0.59099C9.16957 0.593428 8.82419 0.59723 8.47881 0.606553C7.72555 0.626707 6.96584 0.670673 6.22201 0.802928C5.46628 0.937478 4.76305 1.15695 4.077 1.5025C3.40255 1.84182 2.78508 2.28563 2.24998 2.81522C1.71464 3.34482 1.26602 3.95467 0.923104 4.62261C0.573734 5.30131 0.351744 5.99723 0.21668 6.74543C0.0822755 7.48151 0.0375367 8.23294 0.0172372 8.97734C0.00795742 9.31902 0.00397726 9.6607 0.00172256 10.0023C-0.000669885 10.4083 0.000127597 10.8141 0.000127597 11.2208V65.9572C0.000127597 66.364 -0.000669885 66.769 0.00172256 67.1758C0.00397726 67.5174 0.00795742 67.8591 0.0172372 68.2008C0.0375367 68.9445 0.0822755 69.6959 0.21668 70.4318C0.351744 71.1803 0.573734 71.8759 0.923104 72.5547C1.26602 73.2226 1.71464 73.8333 2.24998 74.3621C2.78508 74.8925 3.40255 75.3363 4.077 75.6747C4.76305 76.0212 5.46628 76.2408 6.22201 76.3753C6.96584 76.5066 7.72555 76.5514 8.47881 76.5716C8.82419 76.5793 9.16957 76.5839 9.51576 76.5855C9.92529 76.5886 10.3363 76.5886 10.7466 76.5886H109.254C109.663 76.5886 110.074 76.5886 110.484 76.5855C110.829 76.5839 111.174 76.5793 111.521 76.5716C112.273 76.5514 113.033 76.5066 113.778 76.3753C114.533 76.2408 115.236 76.0212 115.922 75.6747C116.598 75.3363 117.213 74.8925 117.749 74.3621C118.284 73.8333 118.733 73.2226 119.076 72.5547C119.426 71.8759 119.648 71.1803 119.783 70.4318C119.917 69.6959 119.961 68.9445 119.981 68.2008C119.991 67.8591 119.995 67.5174 119.997 67.1758C120 66.769 120 66.364 120 65.9572V11.2208C120 10.8141 120 10.4083 119.997 10.0023C119.995 9.6607 119.991 9.31902 119.981 8.97734C119.961 8.23294 119.917 7.48151 119.783 6.74543C119.648 5.99723 119.426 5.30131 119.076 4.62261C118.733 3.95467 118.284 3.34482 117.749 2.81522C117.213 2.28563 116.598 1.84182 115.922 1.5025C115.236 1.15695 114.533 0.937478 113.778 0.802928C113.033 0.670673 112.273 0.626707 111.521 0.606553C111.174 0.59723 110.829 0.593428 110.484 0.59099C110.074 0.588623 109.663 0.588623 109.254 0.588623Z" fill="black"/>
<path d="M109.254 3.12183L110.465 3.12412C110.794 3.12642 111.122 3.12993 111.452 3.13882C112.026 3.15417 112.698 3.18494 113.324 3.29597C113.868 3.39293 114.325 3.54039 114.763 3.76101C115.195 3.9784 115.591 4.26328 115.937 4.60503C116.285 4.94908 116.573 5.34168 116.796 5.77424C117.017 6.20421 117.166 6.65362 117.263 7.19598C117.375 7.80863 117.406 8.47492 117.422 9.04647C117.43 9.36907 117.435 9.69168 117.436 10.022C117.44 10.4214 117.439 10.8206 117.439 11.2208V65.9572C117.439 66.3574 117.44 66.7559 117.436 67.1639C117.435 67.4864 117.43 67.809 117.422 68.1322C117.406 68.7029 117.375 69.3688 117.262 69.9887C117.166 70.5236 117.018 70.9731 116.795 71.4052C116.573 71.8367 116.285 72.2289 115.939 72.5708C115.591 72.915 115.196 73.199 114.758 73.4184C114.324 73.638 113.868 73.7853 113.329 73.8813C112.69 73.9939 111.991 74.0248 111.463 74.039C111.132 74.0464 110.802 74.0508 110.464 74.0524C110.061 74.0555 109.657 74.0554 109.254 74.0554H10.7466C10.7413 74.0554 10.7361 74.0554 10.7306 74.0554C10.3323 74.0554 9.93322 74.0554 9.52766 74.0523C9.197 74.0508 8.86706 74.0464 8.54806 74.0393C8.00897 74.0248 7.30871 73.9939 6.67514 73.882C6.13163 73.7853 5.67597 73.638 5.23547 73.4156C4.80201 73.1981 4.4074 72.9144 4.05933 72.5695C3.71395 72.2284 3.42693 71.8374 3.20501 71.4053C2.98288 70.9736 2.83425 70.5227 2.73653 69.9815C2.62357 69.3628 2.59255 68.6995 2.57704 68.1327C2.56819 67.8082 2.56449 67.4837 2.56239 67.1611L2.56079 66.2087L2.56086 65.9572V11.2208L2.56079 10.9693L2.56231 10.0189C2.56449 9.69441 2.56819 9.36994 2.57704 9.04568C2.59255 8.47829 2.62357 7.81472 2.73747 7.19089C2.83433 6.65448 2.98288 6.20364 3.20617 5.76979C3.42635 5.34097 3.71388 4.94951 4.06108 4.60611C4.4069 4.26385 4.8028 3.97933 5.23902 3.75986C5.67481 3.54032 6.13133 3.39293 6.67485 3.29618C7.30109 3.18487 7.97323 3.15417 8.54886 3.13875C8.87699 3.12993 9.20512 3.12642 9.53078 3.12419L10.7466 3.12183H109.254Z" fill="white"/>
<path d="M32.7592 26.1507C33.7867 24.8793 34.484 23.1722 34.3001 21.4277C32.796 21.5017 30.9605 22.4094 29.8979 23.6818C28.9438 24.7714 28.0993 26.5499 28.3195 28.2213C30.0079 28.3661 31.6947 27.3864 32.7592 26.1507Z" fill="black"/>
<path d="M34.2812 28.5475C31.8292 28.403 29.7444 29.9242 28.5735 29.9242C27.4019 29.9242 25.6088 28.6203 23.6694 28.6555C21.1452 28.6922 18.803 30.1041 17.5221 32.3497C14.8874 36.8421 16.8268 43.5058 19.3889 47.1646C20.6331 48.9747 22.1326 50.9678 24.1083 50.8962C25.9751 50.8237 26.7068 49.7003 28.976 49.7003C31.2435 49.7003 31.9026 50.8962 33.8787 50.86C35.928 50.8237 37.2092 49.0489 38.4533 47.2371C39.8807 45.1736 40.465 43.1812 40.5017 43.0718C40.465 43.0356 36.5501 41.5499 36.5138 37.0948C36.4769 33.3646 39.5874 31.5903 39.7338 31.4802C37.9773 28.9101 35.2327 28.6203 34.2812 28.5475Z" fill="black"/>
<path d="M55.6314 23.4993C60.9607 23.4993 64.6717 27.1335 64.6717 32.4246C64.6717 37.7346 60.8843 41.3877 55.4977 41.3877H49.5972V50.6708H45.334V23.4993L55.6314 23.4993ZM49.5971 37.8476H54.4888C58.2006 37.8476 60.3131 35.8706 60.3131 32.4435C60.3131 29.0167 58.2006 27.0583 54.5079 27.0583H49.5971V37.8476Z" fill="black"/>
<path d="M65.7852 45.0407C65.7852 41.5757 68.4689 39.4481 73.2277 39.1844L78.709 38.8645V37.3394C78.709 35.1362 77.2052 33.8181 74.6933 33.8181C72.3135 33.8181 70.8288 34.9477 70.4676 36.7179H66.5848C66.8131 33.14 69.8963 30.5039 74.8453 30.5039C79.6988 30.5039 82.8011 33.046 82.8011 37.019V50.6707H78.861V47.4131H78.7663C77.6054 49.6163 75.0737 51.0096 72.4472 51.0096C68.5262 51.0096 65.7852 48.5993 65.7852 45.0407ZM78.709 43.2519V41.6891L73.7791 41.9902C71.3237 42.1598 69.9345 43.233 69.9345 44.9277C69.9345 46.6599 71.381 47.7898 73.589 47.7898C76.4629 47.7898 78.709 45.8314 78.709 43.2519Z" fill="black"/>
<path d="M86.5216 57.9581V54.6628C86.8256 54.738 87.5106 54.738 87.8536 54.738C89.7568 54.738 90.7848 53.9473 91.4126 51.9137C91.4126 51.8759 91.7745 50.7086 91.7745 50.6897L84.542 30.8618H88.9953L94.0588 46.9803H94.1345L99.198 30.8618H103.538L96.0377 51.7063C94.3254 56.5082 92.3458 58.0522 88.1965 58.0522C87.8536 58.0522 86.8256 58.0144 86.5216 57.9581Z" fill="black"/>
</g>
<defs>
<clipPath id="clip0_596_12567">
<rect width="120" height="76" fill="white" transform="translate(0 0.588623)"/>
</clipPath>
</defs>
</svg>
