<svg width="120" height="75" viewBox="0 0 120 75" fill="none" xmlns="http://www.w3.org/2000/svg">
<rect width="120" height="75" rx="8" fill="white"/>
<path d="M100.641 47.0873V42.3648C100.641 40.7434 100.934 39.716 101.878 38.8488C103.078 37.727 104.756 37.7459 104.756 37.7459V34.2488C101.172 34.2488 100.476 36.2943 100.476 36.2943L99.4494 34.5693H97.305V47.0873H100.641ZM33.7511 47.4172C36.9403 47.4172 37.7742 45.3717 37.7742 45.3717L38.8006 47.0967H40.945V34.5787H37.6092V40.7906C37.6092 42.4119 37.1235 43.4676 36.3537 43.9672C35.978 44.2217 35.3732 44.3348 34.805 44.3348C32.8805 44.3348 32.3948 43.2131 32.3948 41.3561V34.5787H29.0407V42.3648C29.0499 45.8619 30.7452 47.4172 33.7511 47.4172ZM76.8321 34.2488C76.8504 34.2488 76.8504 34.2488 76.8321 34.2488C73.643 34.2488 72.809 36.2943 72.809 36.2943L71.801 34.5693H69.6565V47.0873H72.9923V40.8943C72.9923 39.273 73.478 38.2172 74.2478 37.7176C74.6235 37.4631 75.2284 37.35 75.7966 37.35C77.721 37.35 78.2068 38.4717 78.2068 40.3287V47.0873H81.5425V39.3012C81.5334 35.8041 79.8471 34.2488 76.8321 34.2488ZM58.3479 34.2488C55.2687 34.2488 54.3798 36.1246 54.3614 36.1434L54.2973 36.2943L54.2148 36.1623C53.3809 34.8709 52.1987 34.2582 50.2284 34.2582C47.1492 34.2582 46.2603 36.134 46.2419 36.1529L46.1778 36.3037L45.1514 34.5787H43.007V36.3037V38.8959V47.0967H46.3427V40.9037C46.3427 38.4811 47.1584 37.3594 48.8812 37.3594C50.4117 37.3594 51.1265 38.2926 51.1265 40.3004V47.0967H54.4622V40.8189C54.4622 38.4623 55.2595 37.35 56.9549 37.35C57.9447 37.35 59.246 37.6516 59.246 40.3287V47.0873H62.5817V39.3012C62.6001 35.8041 61.2804 34.2488 58.3479 34.2488ZM19.4641 43.5148V29.5451H16V47.0873H27.8952V43.5242H19.4641V43.5148ZM63.544 29.5451L66.0183 32.0902L68.4927 29.5451L66.0183 27L63.544 29.5451ZM64.2863 34.5598H67.7504V47.0779H64.2863V34.5598ZM89.3321 34.2488C87.3618 34.2488 85.6848 34.918 84.4659 36.1906C83.3296 37.3783 82.7064 39.0373 82.7064 40.8283C82.7064 42.6193 83.3204 44.2783 84.4659 45.466C85.6664 46.7385 87.3618 47.4266 89.3321 47.4266C93.2361 47.4266 95.967 44.7119 95.967 40.8283C95.967 36.9447 93.2361 34.2488 89.3321 34.2488ZM89.3138 44.5045C87.4076 44.5045 86.0422 42.968 86.0422 40.8377C86.0422 38.7451 87.4443 37.1709 89.3138 37.1709C91.2199 37.1709 92.6312 38.7451 92.6312 40.8377C92.6312 42.9492 91.2383 44.5045 89.3138 44.5045Z" fill="#481335"/>
</svg>
