<svg width="100" height="100" viewBox="0 0 100 100" fill="none" xmlns="http://www.w3.org/2000/svg">
<g clip-path="url(#clip0_596_12579)">
<path d="M99.0564 35.1177C97.8281 25.845 94.5457 17.4414 88.7564 11.2864H88.7541C82.5991 5.49872 74.1954 2.21638 64.9217 0.988382C56.0627 -0.186285 50.0334 0.104049 50.0334 0.104049C50.0334 0.104049 44.0007 -0.186285 35.1424 0.988049C25.8681 2.21605 17.4647 5.49872 11.3084 11.286C5.52039 17.441 2.23639 25.8447 1.00806 35.1177C-0.166276 43.9737 0.125057 50.0054 0.125057 50.0054C0.125057 50.0054 -0.166276 56.0347 1.00806 64.8934C2.23639 74.1664 5.52039 82.5677 11.3084 88.722V88.7244C17.4647 94.5114 25.8681 97.7934 35.1421 99.0231C44.0004 100.197 50.0331 99.9057 50.0331 99.9057C50.0331 99.9057 56.0624 100.197 64.9214 99.0231C74.1951 97.7937 82.5987 94.5117 88.7537 88.7244L88.7561 88.722C94.5454 82.5677 97.8281 74.1664 99.0561 64.8934C100.23 56.0347 99.9391 50.0054 99.9391 50.0054C99.9391 50.0054 100.23 43.9734 99.0564 35.1177Z" fill="#1E4BC6"/>
<path d="M18.4834 35.375H27.4504C28.8144 35.375 30.0694 35.6203 31.2174 36.11C32.3661 36.5997 33.3571 37.263 34.1961 38.101C35.0321 38.9383 35.6897 39.9243 36.1677 41.0603C36.6461 42.1957 36.8857 43.409 36.8857 44.6993C36.8857 45.991 36.6461 47.2103 36.1677 48.359C35.6901 49.506 35.0321 50.4983 34.1961 51.3347C33.3571 52.1723 32.3591 52.8377 31.1994 53.3263C30.0404 53.8173 28.7784 54.062 27.4151 54.062H23.3617V61.5577H18.4834V35.375ZM23.3617 39.894V49.5427H27.0917C27.8097 49.5427 28.4674 49.417 29.0641 49.166C29.6614 48.915 30.1761 48.5677 30.6074 48.125C31.0387 47.6837 31.3731 47.169 31.6114 46.583C31.8514 45.997 31.9714 45.37 31.9714 44.6993C31.9714 44.0313 31.8514 43.4027 31.6114 42.8167C31.3731 42.2307 31.0387 41.724 30.6074 41.2927C30.1761 40.8623 29.6617 40.5213 29.0641 40.2707C28.4674 40.0197 27.8097 39.894 27.0917 39.894H23.3617Z" fill="white"/>
<path d="M48.1497 61.5924C46.882 61.5924 45.6324 61.3584 44.4017 60.8857C43.168 60.4134 42.063 59.7277 41.0824 58.8281C40.1017 57.9294 39.3124 56.8284 38.7144 55.5257C38.1167 54.2251 37.8184 52.7431 37.8184 51.0841C37.8184 49.4011 38.111 47.9101 38.6967 46.6071C39.2827 45.3051 40.0594 44.2034 41.0294 43.3047C41.997 42.4067 43.1097 41.7207 44.364 41.2484C45.6204 40.7764 46.9057 40.5391 48.221 40.5391C49.6067 40.5391 50.8867 40.7907 52.059 41.2921C53.23 41.7937 54.1997 42.4767 54.9657 43.3437V40.5761H59.808V61.5577H54.9657V58.5764C54.1997 59.5144 53.22 60.2507 52.0224 60.7874C50.8274 61.3264 49.5364 61.5924 48.1497 61.5924ZM48.9387 57.1471C49.8467 57.1471 50.6837 56.9887 51.4504 56.6747C52.215 56.3604 52.8724 55.9221 53.4217 55.3607C53.972 54.7984 54.408 54.1471 54.7314 53.4061C55.0554 52.6677 55.217 51.8697 55.217 51.0141C55.217 50.1841 55.0554 49.3974 54.7314 48.6564C54.408 47.9167 53.9724 47.2704 53.4217 46.7201C52.8724 46.1691 52.215 45.7374 51.4504 45.4237C50.6837 45.1091 49.8464 44.9517 48.9387 44.9517C48.0534 44.9517 47.223 45.1091 46.445 45.4237C45.6674 45.7374 44.9927 46.1634 44.4187 46.7021C43.8447 47.2424 43.3964 47.8824 43.073 48.6237C42.75 49.3647 42.5894 50.1621 42.5894 51.0137C42.5894 51.8691 42.75 52.6721 43.073 53.4241C43.3964 54.1761 43.8447 54.8254 44.4187 55.3761C44.9924 55.9287 45.6674 56.3597 46.445 56.6744C47.223 56.9891 48.0534 57.1471 48.9387 57.1471Z" fill="white"/>
<path d="M69.9957 60.6498L61.3867 40.5754H66.5521L72.3981 54.9318L77.9241 40.5754H83.0177L70.4967 71.2051H65.5851L69.9957 60.6498Z" fill="white"/>
</g>
<defs>
<clipPath id="clip0_596_12579">
<rect width="100" height="100" fill="white"/>
</clipPath>
</defs>
</svg>
