<svg width="100" height="100" viewBox="0 0 100 100" fill="none" xmlns="http://www.w3.org/2000/svg">
<g clip-path="url(#clip0_596_12564)">
<path d="M0 0H100V100H0V0Z" fill="#60CD18"/>
<path d="M36.325 43.55L33.075 45.9625C31.5625 44.65 29.575 44.3875 28.5 44.3875C27.425 44.3875 26.25 44.7 26.0875 45.4875C25.9125 46.25 26.625 46.85 27.8375 47.1875C29.2375 47.5625 30.5 47.8875 32.4625 48.4375C35.3625 49.275 37.3375 50.5375 37.3375 53.4375C37.3375 57.4625 33.7875 59.55 29 59.55C24.2125 59.55 20.975 57.05 20 55.9L23.425 53.3375C25.825 55.4375 27.5 55.725 28.8875 55.725C30.4875 55.725 31.9875 55.3875 32.1875 54.475C32.3375 53.75 31.7375 53.175 30.375 52.85C28.825 52.5 27.525 52.2125 26.075 51.825C22.1375 50.8 21.025 48.5 21.025 46.45C21.025 43.6125 23.65 40.7 28.4875 40.7C31.3578 40.6631 34.1435 41.6717 36.325 43.5374M56.9375 40.9875H42.5V59H57.1875V54.85H47.5625V51.9375H54.1875V47.9625H47.5625V45.0875H56.925L56.9375 40.9875ZM38.7875 63.175H39.9125V36.825H38.7875V63.175ZM59.0875 63.175H60.2125V36.825H59.0875V63.175ZM62.8125 59.0125H74.4C77.4875 59.0125 80 57.1375 80 54.1625C80 51.825 78.475 50.2875 76.3375 49.6C76.2676 49.5853 76.1964 49.5769 76.125 49.575C76.1968 49.5684 76.2678 49.5558 76.3375 49.5375C77.122 49.2181 77.7895 48.6657 78.25 47.9548C78.7105 47.244 78.9417 46.4089 78.9125 45.5625C78.9125 42.775 76.45 40.9875 73.4125 40.9875H62.8125V59.0125ZM67.9 44.7375H71.95C72.875 44.7375 73.6375 45.4875 73.6375 46.325C73.6375 47.1625 72.8875 47.9 71.95 47.9H67.9V44.7375ZM72.85 55.0125H67.9V51.725H72.85C73.2494 51.7744 73.6171 51.9682 73.8836 52.2697C74.1502 52.5713 74.2973 52.96 74.2973 53.3625C74.2973 53.765 74.1502 54.1536 73.8836 54.4552C73.6171 54.7567 73.2494 54.9505 72.85 55V55.0125Z" fill="white"/>
</g>
<defs>
<clipPath id="clip0_596_12564">
<rect width="100" height="100" fill="white"/>
</clipPath>
</defs>
</svg>
