<svg width="120" height="39" viewBox="0 0 120 39" fill="none" xmlns="http://www.w3.org/2000/svg">
<path d="M5.74727 9.98407C7.01775 9.97589 8.23385 9.47362 9.13223 8.58601C10.0306 7.69841 10.539 6.49691 10.5473 5.24167C10.539 3.98643 10.0306 2.78493 9.13223 1.89732C8.23385 1.00972 7.01775 0.507445 5.74727 0.499268C4.47678 0.507445 3.26069 1.00972 2.3623 1.89732C1.46391 2.78493 0.955543 3.98643 0.947266 5.24167C0.955543 6.49691 1.46391 7.69841 2.3623 8.58601C3.26069 9.47362 4.47678 9.97589 5.74727 9.98407ZM9.53674 37.4401V12.4801H1.95779V37.4401H9.53674ZM25.7194 37.4401V19.2193H31.2773V12.4801H25.7194V3.49447H18.1404V12.4801H13.5931V19.2193H18.1404V37.4401H25.7194ZM59.0478 27.2065C59.0478 27.2065 59.3004 25.8586 59.3004 24.7105C59.3004 17.5719 54.1973 11.9809 47.2246 11.9809C40.5567 11.9809 34.2915 17.8714 34.2915 24.9601C34.2915 32.0986 39.9504 37.9393 47.2262 37.9393C51.671 37.9393 55.8662 36.0423 58.1889 33.5463L52.9341 28.6541C51.9236 29.7025 49.8536 30.8007 47.782 30.8007C44.9004 30.8007 42.7294 28.9537 42.2731 27.2065H59.0478ZM42.5273 22.1645C43.1825 20.4673 44.8499 19.0196 47.1757 19.0196C48.1227 19.0103 49.0454 19.3152 49.7962 19.8853C50.5471 20.4555 51.0827 21.2581 51.3173 22.1645H42.5273ZM72.4467 37.4401V0.499268H64.8678V37.4401H72.4467ZM87.101 37.4401V0.499268H79.522V37.4401H87.101ZM119.187 37.4401V12.4801H111.608V14.2772H111.507C109.688 12.8794 107.566 11.9809 105.039 11.9809C97.7131 11.9809 92.4078 17.7716 92.4078 24.9601C92.4078 32.1485 97.7131 37.9393 105.039 37.9393C107.566 37.9393 109.688 37.0407 111.507 35.6429H111.608V37.4401H119.187ZM105.797 30.7009C102.564 30.7009 99.9867 28.3047 99.9867 24.9601C99.9867 21.6154 102.564 19.2193 105.797 19.2193C109.031 19.2193 111.608 21.6154 111.608 24.9601C111.608 28.3047 109.031 30.7009 105.797 30.7009Z" fill="white"/>
</svg>
