<svg width="100" height="100" viewBox="0 0 100 100" fill="none" xmlns="http://www.w3.org/2000/svg">
<g clip-path="url(#clip0_596_13169)">
<path d="M17.1564 17.157H0C5.4395 11.7176 11.8972 7.40277 19.0044 4.45897C26.1116 1.51516 33.7289 0 41.4218 0C49.1144 0 56.7319 1.51516 63.8391 4.45897C70.9463 7.40277 77.4039 11.7176 82.8434 17.157H17.1564Z" fill="#FF6600"/>
<path d="M17.1567 82.8368V17.157C6.17135 28.1431 0 43.0428 0 58.5785C0 74.1143 6.17135 89.0138 17.1567 100V82.8368Z" fill="#FF6600"/>
<path d="M82.8438 82.8368V17.1569V0.00146484C93.8286 10.9863 99.9996 25.8846 99.9996 41.4191C99.9996 56.9536 93.8286 71.8519 82.8438 82.8368Z" fill="#FF6600"/>
<path d="M82.8432 82.8369H17.1562C22.5957 88.2762 29.0534 92.5911 36.1606 95.5349C43.2677 98.4786 50.8851 99.9937 58.5779 99.9937C66.2706 99.9937 73.8881 98.4786 80.9952 95.5349C88.1024 92.5911 94.5601 88.2762 99.9996 82.8369H82.8432Z" fill="#FF6600"/>
</g>
<defs>
<clipPath id="clip0_596_13169">
<rect width="100" height="100" fill="white"/>
</clipPath>
</defs>
</svg>
